<svg width="114" height="114" viewBox="0 0 114 114" fill="none" xmlns="http://www.w3.org/2000/svg">
<g clip-path="url(#clip0_1369_17231)">
<path d="M113.03 10.6273V71.2375C113.03 76.6259 108.659 80.9973 103.268 80.9973H10.2901C4.89906 80.9973 0.530273 76.6259 0.530273 71.2375V10.6273C0.530273 5.29462 4.85357 0.96875 10.1871 0.96875H103.372C108.704 0.96875 113.03 5.29462 113.03 10.6273Z" fill="#C4E2F2"/>
<path d="M79.4705 94.0213L56.7794 99.1917L34.0867 94.0213L37.1955 80.9991L55.8156 74.1523L76.3617 80.9991L77.3677 85.2142L79.4705 94.0213Z" fill="#2D303B"/>
<path d="M113.03 70.0859V71.2335C113.03 76.6245 108.659 80.9959 103.268 80.9959H10.2901C4.89906 80.9959 0.530273 76.6245 0.530273 71.2335V70.0859H113.03Z" fill="#3C3F4D"/>
<path d="M79.4705 94.0219H44.7632L46.866 85.2148H77.3677L79.4705 94.0219Z" fill="#3C3F4D"/>
<path d="M92.8437 101.274V104.366H20.7158V101.274C20.7158 97.2696 23.9619 94.0234 27.9659 94.0234H85.5935C89.5975 94.0234 92.8437 97.2696 92.8437 101.274Z" fill="#2D303B"/>
<path d="M101.002 80.9967H50.0581L52.5532 56.9727H98.5061L101.002 80.9967Z" fill="#83B2C6"/>
<path d="M53.1271 29.9083L52.5254 34.4994L50.5994 49.1687C50.2527 51.8106 48.003 53.7856 45.3371 53.7856H22.3457C19.6806 53.7856 17.4301 51.8106 17.0834 49.1687L14.5557 29.9083L33.8418 24.7422L53.1271 29.9083Z" fill="#1F81A3"/>
<path d="M52.5255 34.5L50.5995 49.1693C50.2527 51.8112 48.0031 53.7862 45.3372 53.7862H29.6929C27.027 53.7862 24.7773 51.8112 24.4306 49.1693L23.1251 39.2276C22.7964 36.723 24.7464 34.5 27.2724 34.5H52.5255Z" fill="#2C92BF"/>
<path d="M55.7673 24.7116V27.5217C55.7673 28.8375 54.7004 29.9053 53.3846 29.9053H14.299C12.9833 29.9053 11.9155 28.8375 11.9155 27.5217V24.7116C11.9155 23.3959 12.9833 22.3281 14.299 22.3281H53.3846C54.7004 22.3281 55.7673 23.3959 55.7673 24.7116Z" fill="#1F81A3"/>
<path d="M55.7677 24.7116V27.5217C55.7677 28.8375 54.7009 29.9053 53.3851 29.9053H23.4825C22.1676 29.9053 21.0999 28.8375 21.0999 27.5217V24.7116C21.0999 23.3959 22.1676 22.3281 23.4825 22.3281H53.3851C54.7009 22.3281 55.7677 23.3959 55.7677 24.7116Z" fill="#2C92BF"/>
<path d="M33.8421 11.543C31.686 11.543 29.9385 13.2905 29.9385 15.4457V34.0426C29.9385 36.1987 31.686 37.9462 33.8421 37.9462C35.9973 37.9462 37.7448 36.1987 37.7448 34.0426V15.4457C37.7448 13.2905 35.9973 11.543 33.8421 11.543Z" fill="#3C3F4D"/>
<path d="M100.773 80.9959H49.8279L50.96 70.0859H99.6406L100.773 80.9959Z" fill="#2D303B"/>
<path d="M101.49 56.9727H55.5384L49.6838 113.318H107.345L101.49 56.9727Z" fill="#FF491F"/>
<path d="M74.5336 75.1953H42.5917L38.5225 113.322H78.6037L74.5336 75.1953Z" fill="#FFE14D"/>
<path d="M90.9118 64.2079C89.9599 64.2079 89.1892 63.4372 89.1892 62.4862V51.1231C89.1892 45.2359 84.4007 40.4474 78.5144 40.4474C72.6273 40.4474 67.8388 45.2368 67.8388 51.1231V62.4862C67.8388 63.4372 67.068 64.2079 66.117 64.2079C65.166 64.2079 64.3953 63.4372 64.3953 62.4862V51.1231C64.3953 43.3374 70.7287 37.0039 78.5144 37.0039C86.2993 37.0039 92.6336 43.3374 92.6336 51.1231V62.4862C92.6336 63.4372 91.8628 64.2079 90.9118 64.2079Z" fill="white"/>
<path d="M58.5629 98.6738C53.5306 98.6738 49.4365 94.5796 49.4365 89.5474V82.1436C49.4365 81.1926 50.2081 80.4219 51.1591 80.4219C52.1101 80.4219 52.8809 81.1926 52.8809 82.1436V89.5474C52.8809 92.6802 55.4301 95.2294 58.5629 95.2294C61.6966 95.2294 64.2449 92.6811 64.2449 89.5474V82.1436C64.2449 81.1926 65.0157 80.4219 65.9667 80.4219C66.9177 80.4219 67.6884 81.1926 67.6884 82.1436V89.5474C67.6884 94.5796 63.5952 98.6738 58.5629 98.6738Z" fill="#3C3F4D"/>
<path d="M73.0572 20.1857H65.71C64.759 20.1857 63.9883 19.415 63.9883 18.464C63.9883 17.5129 64.759 16.7422 65.71 16.7422H73.0572C74.0082 16.7422 74.7789 17.5129 74.7789 18.464C74.7789 19.415 74.0082 20.1857 73.0572 20.1857Z" fill="#FF491F"/>
<path d="M104.511 20.1857H80.6334C79.6824 20.1857 78.9116 19.415 78.9116 18.464C78.9116 17.5129 79.6824 16.7422 80.6334 16.7422H104.511C105.462 16.7422 106.233 17.5129 106.233 18.464C106.233 19.415 105.462 20.1857 104.511 20.1857Z" fill="#3C3F4D"/>
<path d="M73.0572 28.2217H65.71C64.759 28.2217 63.9883 27.4501 63.9883 26.4991C63.9883 25.5481 64.759 24.7773 65.71 24.7773H73.0572C74.0082 24.7773 74.7789 25.5481 74.7789 26.4991C74.7789 27.4501 74.0082 28.2217 73.0572 28.2217Z" fill="#FF491F"/>
<path d="M104.511 28.2217H80.6334C79.6824 28.2217 78.9116 27.4501 78.9116 26.4991C78.9116 25.5481 79.6824 24.7773 80.6334 24.7773H104.511C105.462 24.7773 106.233 25.5481 106.233 26.4991C106.233 27.4501 105.462 28.2217 104.511 28.2217Z" fill="#3C3F4D"/>
</g>
<defs>
<clipPath id="clip0_1369_17231">
<rect width="112.5" height="112.5" fill="white" transform="translate(0.75 0.75)"/>
</clipPath>
</defs>
</svg>
