<svg width="113" height="113" viewBox="0 0 113 113" fill="none" xmlns="http://www.w3.org/2000/svg">
<g clip-path="url(#clip0_1369_17284)">
<path d="M56.4999 16.6562L16.6561 35.4063L56.4999 54.1563L96.3436 35.4063L56.4999 16.6562Z" fill="#5AC0E0"/>
<path d="M58.4967 24.625L88.8717 38.9219L96.3436 35.4063L56.4999 16.6562L16.6561 35.4063L24.128 38.9219L54.503 24.625C55.1276 24.3309 55.8095 24.1784 56.4999 24.1784C57.1903 24.1784 57.8721 24.3309 58.4967 24.625Z" fill="#9CDFEF"/>
<path d="M16.6561 35.4062V77.5938L56.4999 96.3438V54.1562L16.6561 35.4062Z" fill="#769AB2"/>
<path d="M23.6874 43.1594V38.7063L16.6561 35.4062V77.5938L56.4999 96.3438V94.2977C56.4995 92.5176 55.9924 90.7744 55.0378 89.2719C54.0832 87.7695 52.7206 86.5698 51.1093 85.8133L50.596 85.5789C42.5481 81.79 35.7444 75.7894 30.9796 68.278C26.2148 60.7666 23.6856 52.0546 23.6874 43.1594Z" fill="#54849E"/>
<path d="M56.5 54.1562V96.3438L96.3438 77.5938V35.4062L56.5 54.1562Z" fill="#CFD1D3"/>
<path d="M84.6248 63.5312L89.3123 58.8438H72.906V75.25L77.5935 70.5625L89.3123 82.2812L96.3435 75.25L84.6248 63.5312Z" fill="#F9DF10"/>
<path d="M21.344 19.0003H33.0627C33.6843 19.0003 34.2805 18.7533 34.72 18.3138C35.1596 17.8742 35.4065 17.2781 35.4065 16.6565C35.4065 16.0349 35.1596 15.4388 34.72 14.9992C34.2805 14.5597 33.6843 14.3128 33.0627 14.3128H26.9081C36.4927 7.57059 48.0906 4.29985 59.7856 5.04091C71.4807 5.78197 82.573 10.4905 91.2299 18.3885C91.4574 18.596 91.7235 18.7566 92.013 18.8612C92.3025 18.9658 92.6098 19.0124 92.9173 18.9982C93.2249 18.9841 93.5266 18.9095 93.8053 18.7788C94.084 18.648 94.3342 18.4636 94.5416 18.2362C94.7491 18.0087 94.9097 17.7427 95.0143 17.4531C95.1189 17.1636 95.1655 16.8563 95.1514 16.5488C95.1372 16.2413 95.0626 15.9395 94.9319 15.6608C94.8011 15.3821 94.6168 15.1319 94.3893 14.9245C84.8633 6.23083 72.6347 1.08162 59.7592 0.342362C46.8837 -0.396893 34.1462 3.31888 23.6877 10.8651V7.28151C23.6877 6.6599 23.4408 6.06376 23.0013 5.62422C22.5617 5.18468 21.9656 4.93775 21.344 4.93775C20.7224 4.93775 20.1263 5.18468 19.6867 5.62422C19.2472 6.06376 19.0002 6.6599 19.0002 7.28151V16.6565C19.0002 17.2781 19.2472 17.8742 19.6867 18.3138C20.1263 18.7533 20.7224 19.0003 21.344 19.0003Z" fill="#F9DF10"/>
<path d="M92.8092 94.0005H81.0905C80.4689 94.0005 79.8727 94.2474 79.4332 94.6869C78.9937 95.1265 78.7467 95.7226 78.7467 96.3442C78.7467 96.9658 78.9937 97.562 79.4332 98.0015C79.8727 98.441 80.4689 98.688 81.0905 98.688H87.2452C77.6605 105.43 66.0626 108.701 54.3676 107.96C42.6726 107.219 31.5803 102.51 22.9233 94.6122C22.4639 94.1932 21.857 93.9739 21.2359 94.0025C20.6148 94.031 20.0305 94.3052 19.6116 94.7645C19.1926 95.2239 18.9733 95.8309 19.0019 96.4519C19.0304 97.073 19.3046 97.6573 19.7639 98.0762C29.29 106.77 41.5185 111.919 54.394 112.658C67.2695 113.398 80.007 109.682 90.4655 102.136V105.719C90.4655 106.341 90.7124 106.937 91.152 107.377C91.5915 107.816 92.1876 108.063 92.8092 108.063C93.4308 108.063 94.027 107.816 94.4665 107.377C94.9061 106.937 95.153 106.341 95.153 105.719V96.3442C95.153 95.7226 94.9061 95.1265 94.4665 94.6869C94.027 94.2474 93.4308 94.0005 92.8092 94.0005Z" fill="#F9DF10"/>
<g filter="url(#filter0_d_1369_17284)">
<path d="M38.5923 69.0479C39.9677 71.0642 39.4624 75.2347 39.4624 75.2347H10.2522C10.2522 75.2347 9.74935 71.0642 11.1224 69.0479C12.2568 67.3825 19.0424 57.7479 21.3792 54.4311C21.8516 53.7598 21.8516 52.8616 21.3792 52.1903C19.0424 48.8735 12.2592 39.2389 11.1224 37.5735C9.74701 35.5573 10.2522 31.3867 10.2522 31.3867H39.4624C39.4624 31.3867 39.9653 35.5573 38.5923 37.5735C38.5502 37.6343 38.5034 37.7045 38.4473 37.7864C38.4379 37.8004 38.4286 37.8145 38.4192 37.8285C38.4052 37.8495 38.3888 37.8706 38.3748 37.894C38.3654 37.908 38.356 37.9221 38.3444 37.9361C38.3397 37.9454 38.3327 37.9525 38.328 37.9618C38.3139 37.9829 38.2999 38.0039 38.2835 38.025C38.2812 38.0296 38.2765 38.0343 38.2742 38.039C38.2672 38.0507 38.2601 38.0601 38.2531 38.0718C38.2321 38.1022 38.211 38.1326 38.19 38.163C38.1806 38.177 38.1689 38.191 38.1596 38.2074C38.0286 38.3945 37.8789 38.6097 37.7128 38.8483C37.6941 38.8764 37.6754 38.9021 37.6567 38.9302C37.3315 39.3957 36.9479 39.9453 36.5222 40.5535C36.4942 40.5933 36.4661 40.633 36.4404 40.6728C36.4123 40.7149 36.3819 40.757 36.3538 40.7968C36.3094 40.8599 36.2649 40.9231 36.2228 40.9862C35.5234 41.9827 34.7328 43.1101 33.9212 44.2656C33.8884 44.3124 33.8557 44.3615 33.8206 44.4083C33.7107 44.565 33.5984 44.724 33.4885 44.8808C33.437 44.9556 33.3855 45.0281 33.3317 45.103C33.2803 45.1778 33.2288 45.2503 33.175 45.3252C33.1259 45.3953 33.0768 45.4655 33.0277 45.5357C32.9458 45.6503 32.8663 45.7673 32.7844 45.8819C32.7587 45.9193 32.733 45.9567 32.7072 45.9918C31.9283 47.1005 31.1611 48.1905 30.4641 49.1776C29.6103 50.3916 28.8641 51.4488 28.3425 52.1903C27.87 52.8616 27.87 53.7598 28.3425 54.4311C28.8641 55.1726 29.6103 56.2299 30.4641 57.4438C31.1588 58.4309 31.926 59.5233 32.7072 60.6296C32.733 60.6671 32.7587 60.7045 32.7844 60.7396C32.8663 60.8542 32.9458 60.9711 33.0277 61.0858C33.0768 61.1559 33.1259 61.2261 33.175 61.2963C33.2265 61.3711 33.2803 61.4436 33.3317 61.5185C33.3832 61.5933 33.437 61.6658 33.4885 61.7407C33.6007 61.8997 33.7107 62.0565 33.8206 62.2132C33.8534 62.26 33.8884 62.3091 33.9212 62.3559C34.7328 63.5114 35.5234 64.6388 36.2228 65.6352C36.2673 65.6984 36.3117 65.7615 36.3538 65.8247C36.3819 65.8668 36.4123 65.9089 36.4404 65.9487C36.4684 65.9884 36.4965 66.0282 36.5222 66.068C36.9479 66.6761 37.3315 67.2258 37.6567 67.6913C37.6754 67.7193 37.6941 67.7474 37.7128 67.7731C37.8789 68.0117 38.0286 68.2269 38.1596 68.414C38.1689 68.4281 38.1806 68.4421 38.19 68.4585C38.211 68.4889 38.2321 68.5193 38.2531 68.5497C38.2601 68.5614 38.2672 68.5707 38.2742 68.5824C38.2765 68.5871 38.2812 68.5918 38.2835 68.5965C38.2976 68.6175 38.3139 68.6386 38.328 68.6596C38.3327 68.669 38.3397 68.676 38.3444 68.6854C38.3537 68.6994 38.3654 68.7134 38.3748 68.7275C38.3911 68.7509 38.4052 68.7719 38.4192 68.793C38.4286 68.807 38.4379 68.821 38.4473 68.8351C38.5011 68.9169 38.5502 68.9871 38.5923 69.0479Z" fill="#B6D8D8"/>
<path d="M41.9398 28.989V30.21C41.9398 30.8603 41.4135 31.3866 40.7632 31.3866H8.74149C8.09123 31.3866 7.56494 30.8603 7.56494 30.21V28.989C7.56494 28.3388 8.09123 27.8125 8.74149 27.8125H40.7609C41.0462 27.8125 41.3082 27.9131 41.5117 28.0838C41.5678 28.1306 41.6216 28.1821 41.6684 28.2405C41.8368 28.4417 41.9398 28.7037 41.9398 28.989Z" fill="#414042"/>
<path d="M41.9397 76.4109V77.6319C41.9397 78.2822 41.4134 78.8085 40.7631 78.8085H8.74139C8.45602 78.8085 8.19405 78.7079 7.99055 78.5395C7.93441 78.4927 7.88295 78.4412 7.83383 78.3827C7.66542 78.1792 7.5625 77.9173 7.5625 77.6319V76.4109C7.5625 75.7607 8.08879 75.2344 8.73905 75.2344H40.7584C41.411 75.2344 41.9397 75.7607 41.9397 76.4109Z" fill="#414042"/>
<path d="M35.5445 39.4531C32.9879 43.1067 28.7355 49.1438 27.1683 51.3683C26.766 51.939 26.5531 52.6127 26.5531 53.3097H23.1615C23.1615 52.6103 22.9487 51.939 22.5463 51.3683C20.5628 48.5521 16.5911 42.9103 14.1702 39.4531H35.5445Z" fill="#FFCB8D"/>
<path d="M38.1225 73.8081H11.5929C11.5882 73.5461 11.5882 73.2537 11.5976 72.9473C11.6467 71.5439 11.897 70.4445 12.3017 69.8504C12.304 69.848 12.3063 69.8434 12.3087 69.841C13.0993 68.6809 14.2127 67.778 15.5108 67.24L23.2929 64.0214C24.2963 63.6074 25.4214 63.6074 26.4226 64.0214L34.2046 67.24C35.5004 67.7756 36.6138 68.6785 37.4044 69.8387C37.4068 69.8434 37.4091 69.848 37.4138 69.8504C37.8138 70.4375 38.0641 71.5228 38.1155 72.9075C38.1272 73.2303 38.1272 73.5344 38.1225 73.8081Z" fill="#FFCB8D"/>
<path d="M36.2838 37.5735C35.6522 38.8647 32.5834 44.9626 30.4572 49.1776C33.4231 44.9626 37.7106 38.867 38.5901 37.5735C39.9654 35.5573 39.4602 31.3867 39.4602 31.3867H36.9059C36.9083 31.3867 37.2685 35.5573 36.2838 37.5735Z" fill="#E6E7E8"/>
<path d="M30.4572 57.4453C32.581 61.6603 35.6522 67.7559 36.2838 69.0494C37.2685 71.0657 36.9083 75.2362 36.9083 75.2362H39.4625C39.4625 75.2362 39.9654 71.0657 38.5924 69.0494C37.7106 67.7582 33.4231 61.6603 30.4572 57.4453Z" fill="#E6E7E8"/>
<path d="M22.6213 52.1903C22.6284 52.202 22.6354 52.2114 22.6424 52.2231C22.6377 52.2114 22.6354 52.202 22.6307 52.1903C22.35 51.3974 21.943 50.2419 21.4775 48.9203C20.1069 45.0351 18.4719 41.2505 16.5772 37.5946C16.5725 37.5876 16.5702 37.5805 16.5655 37.5735C15.5223 35.5573 15.9059 31.3867 15.9059 31.3867H11.4944C11.4944 31.3867 10.9892 35.5573 12.3646 37.5735C13.5014 39.2366 20.287 48.8735 22.6213 52.1903Z" fill="#808285"/>
<path d="M16.5798 69.0269C18.4744 65.3686 20.1094 61.584 21.4801 57.7012C21.9456 56.3796 22.3526 55.2265 22.6333 54.4312C22.6379 54.4195 22.6403 54.4101 22.645 54.3984C22.6379 54.4101 22.6309 54.4195 22.6239 54.4312C20.2872 57.748 13.5039 67.3826 12.3671 69.048C10.9918 71.0642 11.497 75.2348 11.497 75.2348H15.9085C15.9085 75.2348 15.5272 71.0642 16.5681 69.048C16.5728 69.0409 16.5751 69.0339 16.5798 69.0269Z" fill="#808285"/>
<path d="M38.5924 69.0479C39.9678 71.0642 39.4625 75.2347 39.4625 75.2347H24.7522V31.3867H39.4625C39.4625 31.3867 39.9654 35.5573 38.5924 37.5735C37.458 39.2389 30.6724 48.8735 28.3356 52.1903C27.8631 52.8616 27.8631 53.7598 28.3356 54.4311C30.6724 57.7479 37.4556 67.3825 38.5924 69.0479Z" fill="#797979" fill-opacity="0.2"/>
</g>
</g>
<defs>
<filter id="filter0_d_1369_17284" x="-2.9375" y="20.3125" width="49.3772" height="65.9961" filterUnits="userSpaceOnUse" color-interpolation-filters="sRGB">
<feFlood flood-opacity="0" result="BackgroundImageFix"/>
<feColorMatrix in="SourceAlpha" type="matrix" values="0 0 0 0 0 0 0 0 0 0 0 0 0 0 0 0 0 0 127 0" result="hardAlpha"/>
<feOffset dx="-3"/>
<feGaussianBlur stdDeviation="3.75"/>
<feComposite in2="hardAlpha" operator="out"/>
<feColorMatrix type="matrix" values="0 0 0 0 0 0 0 0 0 0 0 0 0 0 0 0 0 0 0.25 0"/>
<feBlend mode="normal" in2="BackgroundImageFix" result="effect1_dropShadow_1369_17284"/>
<feBlend mode="normal" in="SourceGraphic" in2="effect1_dropShadow_1369_17284" result="shape"/>
</filter>
<clipPath id="clip0_1369_17284">
<rect width="112.5" height="112.5" fill="white" transform="translate(0.25 0.25)"/>
</clipPath>
</defs>
</svg>
