<svg width="113" height="113" viewBox="0 0 113 113" fill="none" xmlns="http://www.w3.org/2000/svg">
<path d="M77.8362 104.906L56.5 106.845L35.1638 104.906C40.9828 101.026 40.9828 93.2678 40.9828 93.2678L56.5 91.3281L72.0173 93.2678C72.0173 93.2678 72.0173 101.026 77.8362 104.906Z" fill="#3F5C6C"/>
<path d="M83.6551 108.786C83.6487 110.925 81.9156 112.658 79.7758 112.665H33.224C31.0881 112.649 29.3606 110.921 29.3447 108.786C29.3511 106.646 31.0842 104.913 33.224 104.906H79.7758C81.9116 104.922 83.6392 106.65 83.6551 108.786Z" fill="#547580"/>
<path d="M112.75 81.6328V89.3914C112.744 91.5313 111.011 93.2644 108.871 93.2707H4.12931C1.98948 93.2644 0.256391 91.5313 0.25 89.3914V81.6328H112.75Z" fill="#547580"/>
<path d="M112.75 17.6215V83.5698H0.25V17.6215C0.256391 15.4817 1.98948 13.7486 4.12931 13.7422H108.871C111.011 13.7486 112.744 15.4817 112.75 17.6215Z" fill="#90BAE1"/>
<path d="M109.608 13.8202C91.3944 14.4409 0.25 20.7253 0.25 83.5702V17.6219C0.256391 15.4821 1.98948 13.749 4.12931 13.7426H108.871C109.119 13.7386 109.366 13.7646 109.608 13.8202Z" fill="#B0D3F0"/>
<path d="M92.6163 59.9817C92.2035 60.5616 91.6401 61.0177 90.987 61.3007L58.0129 75.1692C57.0454 75.5766 55.9545 75.5766 54.987 75.1692L22.0129 61.3007C21.3597 61.0177 20.7963 60.5616 20.3835 59.9817L54.987 45.4149C55.9545 45.0075 57.0454 45.0075 58.0129 45.4149L92.6163 59.9817Z" fill="#14A085"/>
<path d="M93.3536 18.2624V57.715C93.3525 58.5301 93.0946 59.3242 92.6165 59.9844L58.0131 45.4176C57.0456 45.0102 55.9547 45.0102 54.9872 45.4176L20.3838 59.9844C19.9058 59.3242 19.6479 58.5301 19.6467 57.715V18.2624C19.6459 16.7004 20.577 15.2885 22.0131 14.6741L54.9872 0.805525C55.9547 0.398158 57.0456 0.398158 58.0131 0.805525L90.9872 14.6741C92.4234 15.2885 93.3545 16.7004 93.3536 18.2624Z" fill="#F9EAB0"/>
<path d="M48.7413 17.62V34.3593C48.7415 35.14 48.2737 35.8447 47.5542 36.1476L32.037 42.6804C31.4386 42.9323 30.7539 42.8681 30.2128 42.5094C29.6716 42.1508 29.3458 41.5451 29.3447 40.8959V24.1567C29.3445 23.376 29.8123 22.6712 30.5318 22.3683L46.049 15.8356C46.6474 15.5837 47.3321 15.6478 47.8733 16.0065C48.4144 16.3652 48.7402 16.9708 48.7413 17.62Z" fill="#84B5CB"/>
<path d="M83.6556 56.2062V24.52C83.6559 23.7393 83.188 23.0345 82.4685 22.7316L66.9513 16.1988C66.3523 15.9467 65.6668 16.0113 65.1254 16.3709C64.5841 16.7305 64.2588 17.3373 64.259 17.9872V48.0402L83.6556 56.2062Z" fill="#A56A43"/>
<path d="M77.8364 38.9613C78.9076 38.9613 79.776 38.0929 79.776 37.0217C79.776 35.9504 78.9076 35.082 77.8364 35.082C76.7651 35.082 75.8967 35.9504 75.8967 37.0217C75.8967 38.0929 76.7651 38.9613 77.8364 38.9613Z" fill="#F3D55B"/>
</svg>
