<svg width="114" height="114" viewBox="0 0 114 114" fill="none" xmlns="http://www.w3.org/2000/svg">
<g clip-path="url(#clip0_1369_17159)" filter="url(#filter0_i_1369_17159)">
<rect width="112.5" height="112.5" transform="translate(0.75 0.75)" fill="url(#paint0_linear_1369_17159)" fill-opacity="0.05"/>
<path d="M0.75 83.8711V93.5984C0.75 96.4283 3.04901 98.7273 5.87889 98.7273H16.4849V83.8711H0.75Z" fill="#F2F2F2"/>
<path d="M16.1334 11.3984C13.3061 11.3984 11.0074 13.695 11.0074 16.5256V93.601C11.0074 96.4309 8.70834 98.7299 5.87891 98.7299H56.7068V11.3984H16.1334Z" fill="#CCCBCA"/>
<path d="M65.4598 12.8987C64.4602 11.8959 63.1485 11.3984 61.8356 11.3984H16.1333C18.9638 11.3984 21.2628 13.695 21.2628 16.5256V48.7884C21.2628 50.3973 22.0064 51.8378 23.1771 52.7804C24.0573 53.4886 25.1784 53.9151 26.3902 53.9151H66.964V16.5256C66.9638 15.2134 66.4637 13.8994 65.4598 12.8987Z" fill="#E6E5E5"/>
<path d="M43.2499 37.0742H26.4022V38.8096H43.2499V37.0742Z" fill="#CCCBCA"/>
<path d="M43.2499 33.6016H26.4022V35.337H43.2499V33.6016Z" fill="#CCCBCA"/>
<path d="M43.2499 30.1328H26.4022V31.8682H43.2499V30.1328Z" fill="#CCCBCA"/>
<path d="M43.2499 26.6641H26.4022V28.4006H43.2499V26.6641Z" fill="#CCCBCA"/>
<path d="M43.2499 23.1914H26.4022V24.9284H43.2499V23.1914Z" fill="#CCCBCA"/>
<path d="M43.2499 40.5469H26.4022V42.2823H43.2499V40.5469Z" fill="#CCCBCA"/>
<path d="M43.2499 44.0195H26.4022V45.7565H43.2499V44.0195Z" fill="#CCCBCA"/>
<path d="M43.2499 47.4922H26.4022V49.2276H43.2499V47.4922Z" fill="#CCCBCA"/>
<path d="M61.8332 37.0742H44.9851V38.8096H61.8332V37.0742Z" fill="#CCCBCA"/>
<path d="M61.8332 33.6016H44.9851V35.337H61.8332V33.6016Z" fill="#CCCBCA"/>
<path d="M61.8332 30.1328H44.9851V31.8682H61.8332V30.1328Z" fill="#CCCBCA"/>
<path d="M61.8332 26.6641H44.9851V28.4006H61.8332V26.6641Z" fill="#CCCBCA"/>
<path d="M61.8332 23.1914H44.9851V24.9284H61.8332V23.1914Z" fill="#CCCBCA"/>
<path d="M61.8332 40.5469H44.9851V42.2823H61.8332V40.5469Z" fill="#CCCBCA"/>
<path d="M61.8332 44.0195H44.9851V45.7565H61.8332V44.0195Z" fill="#CCCBCA"/>
<path d="M61.8332 47.4922H44.9851V49.2276H61.8332V47.4922Z" fill="#CCCBCA"/>
<path d="M61.8317 19.7188H26.394V21.4553H61.8317V19.7188Z" fill="#242D3C"/>
<path d="M36.6468 33.6096C33.818 33.6096 31.5183 35.9079 31.5183 38.7385V48.7904C31.5183 51.6192 29.2283 53.9164 26.3899 53.9164H45.8294V33.6094H36.6468V33.6096Z" fill="#CCCBCA"/>
<path d="M15.9971 52.5857V91.9468C15.9971 95.6712 19.0458 98.7289 22.7836 98.7289H106.47C110.201 98.7289 113.25 95.6712 113.25 91.9468V52.5857C113.25 48.8529 110.201 45.8086 106.47 45.8086H22.7842C19.0465 45.8082 15.9971 48.8529 15.9971 52.5857Z" fill="#242D3C"/>
<path d="M98.5582 49.6484H30.7034V94.8961H98.5582V49.6484Z" fill="#21D8DE"/>
<path d="M107.998 76.46C107.998 77.4606 107.182 78.2763 106.174 78.2763H105.627C104.619 78.2763 103.806 77.4613 103.806 76.46V68.0708C103.806 67.0712 104.619 66.2578 105.627 66.2578H106.174C107.182 66.2578 107.998 67.0706 107.998 68.0708V76.46Z" fill="#3E4959"/>
<path d="M23.3447 70.5547C24.2897 70.5547 25.0474 71.3169 25.0474 72.2602C25.0474 73.1996 24.2891 73.9651 23.3447 73.9651C22.4065 73.9651 21.637 73.1996 21.637 72.2602C21.637 71.3169 22.4065 70.5547 23.3447 70.5547Z" fill="#3E4959"/>
<path d="M23.3445 71.5859C23.7198 71.5859 24.0223 71.8896 24.0223 72.2642C24.0223 72.6395 23.7198 72.95 23.3445 72.95C22.9709 72.95 22.6622 72.6395 22.6622 72.2642C22.6622 71.8896 22.9709 71.5859 23.3445 71.5859Z" fill="#242D3C"/>
<path d="M85.9725 35.1318C84.9723 34.1305 83.6612 33.6289 82.3483 33.6289H36.6506C39.4816 33.6289 41.7784 35.9233 41.7784 38.7578V94.8945H87.475V38.756C87.4757 37.4449 86.9738 36.1307 85.9725 35.1318Z" fill="#F2F2F2"/>
<path d="M81.9846 47.7344H47.2692V63.3546H81.9846V47.7344Z" fill="#16C6CC"/>
<path d="M78.5714 52.424L76.9254 52.8718L75.2829 54.9311L73.6365 55.1172L71.9918 56.4791L70.3492 55.7085L68.4351 54.1212L67.0574 56.0572L65.4117 56.7434L63.7668 55.8907L62.1243 56.6287L60.479 56.9623L58.833 58.9862L57.1912 59.9093L55.5459 58.6206L53.9005 58.1778L52.2546 60.0481L50.6081 59.6438L48.9668 60.7047L47.2692 61.0101V63.3434L81.9846 63.3539V50.0547L80.2167 50.8209L78.5714 52.424Z" fill="white"/>
<path d="M78.5714 58.4159L76.9254 58.6128L75.2829 59.5442L73.6365 59.6281L71.9918 60.2498L70.3492 59.8969L68.4351 59.1797L67.0574 60.0579L65.4117 60.366L63.7668 59.9808L62.1243 60.3137L60.479 60.4679L58.833 61.3798L57.1912 61.8021L55.5459 61.2122L53.9005 61.0124L52.2546 61.859L50.6081 61.6751L48.9668 62.1623L47.2692 62.2954V63.349L81.9846 63.3563V57.3359L80.2167 57.6824L78.5714 58.4159Z" fill="#242D3C"/>
<path d="M81.9846 42.5273H47.2692V45.9979H81.9846V42.5273Z" fill="#F15424"/>
<path d="M62.8904 78.9688H47.269V80.7068H62.8904V78.9688Z" fill="#CCCBCA"/>
<path d="M62.8904 75.5039H47.269V77.2393H62.8904V75.5039Z" fill="#CCCBCA"/>
<path d="M62.8904 72.0312H47.269V73.7671H62.8904V72.0312Z" fill="#CCCBCA"/>
<path d="M62.8904 68.5586H47.269V70.2944H62.8904V68.5586Z" fill="#CCCBCA"/>
<path d="M62.8904 65.0859H47.269V66.8214H62.8904V65.0859Z" fill="#CCCBCA"/>
<path d="M62.8904 82.4453H47.269V84.179H62.8904V82.4453Z" fill="#CCCBCA"/>
<path d="M62.8904 85.9141H47.269V87.651H62.8904V85.9141Z" fill="#CCCBCA"/>
<path d="M62.8904 89.3828H47.269V91.1182H62.8904V89.3828Z" fill="#CCCBCA"/>
<path d="M77.6452 68.5586H73.3071V70.2944H77.6452V68.5586Z" fill="#CCCBCA"/>
<path d="M81.9839 65.0859H73.3073V66.8214H81.9839V65.0859Z" fill="#CCCBCA"/>
<path d="M71.5697 65.0898H66.3604V70.297H71.5697V65.0898Z" fill="#F15424"/>
<path d="M77.6453 75.5078H73.3073V77.2432H77.6453V75.5078Z" fill="#CCCBCA"/>
<path d="M81.9839 72.0352H73.3073V73.771H81.9839V72.0352Z" fill="#CCCBCA"/>
<path d="M71.5697 72.0352H66.3604V77.2427H71.5697V72.0352Z" fill="#F15424"/>
<path d="M81.984 78.9688H73.3074V80.7068H81.984V78.9688Z" fill="#CCCBCA"/>
<path d="M77.6455 82.4453H73.3074V84.179H77.6455V82.4453Z" fill="#CCCBCA"/>
<path d="M71.5695 78.9766H66.3602V84.1837H71.5695V78.9766Z" fill="#F15424"/>
<path d="M81.9839 85.9219H73.3073V87.6588H81.9839V85.9219Z" fill="#CCCBCA"/>
<path d="M77.6453 89.3945H73.3073V91.1299H77.6453V89.3945Z" fill="#CCCBCA"/>
<path d="M71.5697 85.918H66.3604V91.1255H71.5697V85.918Z" fill="#F15424"/>
<path d="M106.7 15.2852H81.9867V39.9971H106.7V15.2852Z" fill="#F15424"/>
<path d="M102.227 35.5321H98.8472C98.8472 28.697 93.2868 23.1368 86.4541 23.1368V19.7578C95.1527 19.7578 102.227 26.8341 102.227 35.5321Z" fill="white"/>
<path d="M96.4188 35.5315H93.0387C93.0387 31.9012 90.0844 28.9458 86.4541 28.9458V25.5664C91.948 25.5668 96.4188 30.037 96.4188 35.5315Z" fill="white"/>
<path d="M90.2561 33.63C90.2561 34.6814 89.4055 35.5329 88.3554 35.5329C87.3064 35.5329 86.4541 34.6808 86.4541 33.63C86.4541 32.5815 87.3062 31.7305 88.3554 31.7305C89.4055 31.7305 90.2561 32.5815 90.2561 33.63Z" fill="white"/>
<path d="M30.7033 77.5312H0.75V98.8029H30.7033V77.5312Z" fill="#F2F2F2"/>
<path d="M25.7273 102.604V98.8047H21.9282L25.7273 102.604Z" fill="#F2F2F2"/>
<path d="M9.52285 91.7734H5.72595V93.8316H9.52285V91.7734Z" fill="#242D3C"/>
<path d="M14.924 88.6875H11.126V93.8362H14.924V88.6875Z" fill="#CCCBCA"/>
<path d="M20.3262 85.5938H16.5282V93.8322H20.3262V85.5938Z" fill="#CCCBCA"/>
<path d="M25.727 82.5039H21.9283V93.8326H25.727V82.5039Z" fill="#16C6CC"/>
</g>
<defs>
<filter id="filter0_i_1369_17159" x="0.75" y="0.75" width="112.5" height="112.5" filterUnits="userSpaceOnUse" color-interpolation-filters="sRGB">
<feFlood flood-opacity="0" result="BackgroundImageFix"/>
<feBlend mode="normal" in="SourceGraphic" in2="BackgroundImageFix" result="shape"/>
<feColorMatrix in="SourceAlpha" type="matrix" values="0 0 0 0 0 0 0 0 0 0 0 0 0 0 0 0 0 0 127 0" result="hardAlpha"/>
<feOffset/>
<feGaussianBlur stdDeviation="1.5"/>
<feComposite in2="hardAlpha" operator="arithmetic" k2="-1" k3="1"/>
<feColorMatrix type="matrix" values="0 0 0 0 0 0 0 0 0 0 0 0 0 0 0 0 0 0 0.25 0"/>
<feBlend mode="normal" in2="shape" result="effect1_innerShadow_1369_17159"/>
</filter>
<linearGradient id="paint0_linear_1369_17159" x1="56.25" y1="0" x2="56.25" y2="112.5" gradientUnits="userSpaceOnUse">
<stop stop-color="#2F52A4"/>
<stop offset="1" stop-color="#E9C291"/>
</linearGradient>
<clipPath id="clip0_1369_17159">
<rect width="112.5" height="112.5" fill="white" transform="translate(0.75 0.75)"/>
</clipPath>
</defs>
</svg>
