<?xml version="1.0" standalone="no"?>
<!DOCTYPE svg PUBLIC "-//W3C//DTD SVG 20010904//EN"
 "http://www.w3.org/TR/2001/REC-SVG-20010904/DTD/svg10.dtd">
<svg version="1.0" xmlns="http://www.w3.org/2000/svg"
 width="207" height="50" viewBox="0 0 1944.000000 514.000000"
 preserveAspectRatio="xMidYMid meet">

<g transform="translate(0.000000,514.000000) scale(0.100000,-0.100000)"
 fill="#2F52A4" stroke="none">

<path d="M80 2515 c0 -1334 4 -2425 8 -2425 10 0 2253 1187 2264 1198 5 5 7
567 6 1249 l-3 1242 -215 -127 -215 -127 -5 -988 -5 -988 -695 -369 -695 -368
-3 859 c-1 472 -1 1245 0 1717 l3 859 224 -109 c123 -59 228 -108 233 -108 10
0 430 271 426 275 -9 7 -1314 635 -1320 635 -5 0 -8 -1091 -8 -2425z"/>
<path d="M2225 4414 c-616 -327 -1123 -598 -1127 -602 -5 -5 -7 -567 -6 -1249
l3 -1242 215 127 215 127 5 988 5 988 695 369 695 368 3 -859 c1 -472 1 -1245
0 -1717 l-3 -859 -224 109 c-123 59 -228 108 -233 108 -10 0 -430 -271 -426
-275 2 -2 190 -93 418 -203 228 -110 522 -252 654 -316 131 -64 243 -116 247
-116 5 0 9 1069 9 2425 0 1934 -3 2425 -12 2424 -7 -1 -517 -268 -1133 -595z"/>

<path d="M3900 2525 l0 -1186 568 4 c527 3 573 5 657 24 353 80 552 311 622
721 23 135 23 467 0 617 -47 302 -156 555 -316 726 -121 131 -237 202 -407
250 -76 22 -98 23 -601 27 l-523 4 0 -1187z m989 775 c119 -17 234 -93 313
-208 47 -68 116 -222 138 -306 47 -184 52 -525 11 -693 -36 -147 -102 -247
-189 -292 -101 -52 -124 -54 -514 -59 l-368 -4 0 779 c0 429 3 783 7 786 10
10 529 8 602 -3z"/>

<path d="M6995 3025 c-405 -77 -694 -427 -695 -841 0 -244 121 -497 312 -654
71 -58 234 -141 323 -165 33 -9 112 -18 175 -22 183 -9 338 30 490 125 87 54
200 162 254 242 l36 55 -117 37 c-178 57 -170 56 -205 14 -81 -99 -237 -174
-378 -183 -108 -7 -185 8 -279 52 -98 47 -214 161 -259 255 l-31 65 679 3 680
2 7 28 c5 15 7 86 7 157 -1 153 -22 244 -84 369 -167 342 -543 531 -915 461z
m267 -286 c157 -32 320 -162 391 -309 19 -41 38 -87 41 -102 l6 -28 -545 0
-545 0 0 23 c0 13 18 61 40 107 113 231 366 360 612 309z"/>

<path d="M8915 3026 c-240 -47 -373 -187 -391 -411 -15 -179 68 -342 218 -433
30 -18 155 -73 278 -122 123 -50 243 -102 267 -116 56 -32 73 -67 73 -148 0
-54 -4 -69 -25 -95 -44 -52 -101 -66 -265 -66 -128 0 -151 3 -192 22 -39 18
-49 28 -59 63 -8 26 -17 39 -26 36 -7 -3 -68 -22 -136 -42 l-124 -37 9 -40
c21 -93 91 -182 180 -228 20 -10 72 -29 115 -41 105 -30 371 -33 473 -5 151
41 247 115 303 235 28 59 32 79 35 173 6 157 -21 237 -113 338 -65 72 -141
113 -385 211 -314 126 -334 141 -335 255 0 78 19 109 91 145 45 23 60 25 184
25 74 0 152 -4 172 -8 53 -11 98 -52 98 -89 0 -23 4 -28 18 -24 9 3 73 22 140
43 l124 37 -6 34 c-21 129 -139 236 -308 278 -88 21 -324 27 -413 10z"/>

<path d="M10263 3431 c-112 -71 -85 -243 42 -267 49 -9 80 1 122 40 33 30 37
39 41 94 4 59 3 61 -35 102 -34 37 -46 43 -89 47 -37 3 -57 -1 -81 -16z"/>
<path d="M10190 2190 l0 -850 145 0 145 0 0 850 0 850 -145 0 -145 0 0 -850z"/>

<path d="M11741 3029 c-341 -44 -620 -293 -712 -634 -17 -63 -22 -107 -22
-210 0 -147 19 -233 76 -357 l33 -73 -27 -40 c-40 -58 -70 -158 -76 -250 -12
-189 87 -378 241 -457 103 -53 91 -52 576 -58 l455 -5 38 -24 c50 -31 81 -91
74 -144 -7 -53 -33 -87 -87 -114 -44 -23 -48 -23 -460 -23 -388 0 -418 2 -457
20 -51 22 -80 67 -89 132 -8 57 -10 58 -171 58 l-123 0 0 -38 c0 -50 34 -171
66 -234 52 -102 176 -192 299 -218 36 -8 197 -10 502 -8 439 4 449 4 511 27
211 78 339 301 287 500 -36 141 -115 245 -226 302 -110 55 -145 59 -594 59
-377 0 -413 2 -451 19 -73 33 -110 103 -102 197 3 30 7 56 10 60 3 3 37 -15
76 -40 206 -134 470 -171 707 -101 280 83 499 311 577 600 33 123 30 319 -6
438 -25 84 -72 187 -116 253 l-21 32 33 20 c18 11 52 23 76 27 l42 7 0 144 0
144 -23 0 c-38 0 -172 -37 -216 -59 -22 -12 -57 -35 -76 -52 l-36 -32 -82 41
c-102 50 -193 78 -299 92 -92 11 -115 11 -207 -1z m199 -289 c85 -13 210 -75
281 -139 314 -281 218 -788 -178 -937 -91 -34 -221 -42 -317 -20 -189 45 -341
185 -407 376 -17 51 -22 87 -22 170 0 83 5 119 22 170 69 198 239 346 434 379
73 12 112 12 187 1z"/>

<path d="M13772 3020 c-117 -31 -206 -83 -303 -180 -100 -99 -154 -185 -201
-320 l-33 -95 -3 -542 -3 -543 146 0 145 0 0 503 c0 308 4 519 11 547 29 127
129 260 241 321 58 31 70 34 148 34 73 0 93 -4 144 -29 108 -53 200 -171 240
-305 14 -47 16 -127 16 -563 l0 -508 145 0 145 0 0 513 c0 583 -2 600 -84 772
-150 315 -453 474 -754 395z"/>

<path d="M15153 4023 c2 -5 154 -264 338 -578 183 -313 403 -692 489 -841 85
-149 286 -494 445 -767 l290 -497 218 0 c120 0 216 3 214 8 -2 4 -154 263
-338 577 -183 314 -403 692 -489 841 -85 149 -285 494 -445 767 l-290 497
-218 0 c-120 0 -216 -3 -214 -7z"/>
<path d="M16642 3883 c-170 -295 -227 -395 -240 -418 -7 -14 -48 -86 -91 -161
l-79 -137 49 -82 c27 -46 75 -131 108 -190 l59 -106 40 68 c193 334 662 1154
662 1158 0 3 -96 5 -214 5 l-214 0 -80 -137z"/>
<path d="M15500 1959 c-190 -330 -347 -605 -348 -610 -3 -6 78 -8 213 -7 l217
3 243 424 242 423 -105 184 c-57 101 -107 184 -111 184 -3 0 -161 -270 -351
-601z"/>

<path d="M17580 2526 l0 -1186 200 0 200 0 0 985 0 985 273 0 c324 0 387 -8
485 -56 363 -177  360 -687 -5 -862 l-78 -37 -302 -3 c-227 -2 -303 -6 -303
-15 1 -7 18 -95 38 -197 l38 -185 156 -3 156 -2 223 -305 223 -305 243 0 c134
0 243 2 243 5 0 3 -108 153 -240 333 -132 180 -240 330 -240 333 0 4 37 28 83
54 108 63 255 210 314 315 84 150 133 357 118 504 -37 396 -287 692 -674 799
-72 19 -106 21 -613 25 l-538 4 0 -1186z"/>
</g>
</svg>
