<svg width="101" height="20" viewBox="-34 22 101 20" fill="none" xmlns="http://www.w3.org/2000/svg">
<g>
    <circle cx="16.459" cy="32.213" r="50" fill="#FFFFFF"/>
    <g id="logo-mini" transform="translate(-8, -6) scale(1.5,1.5)">
        <path d="M21.2848 38.7447L21.2555 38.7322L16.3662 36.3672L16.1733 36.4678L11.5439 38.9167L11.5733 38.9292L16.4332 41.2816L16.4626 41.2942L21.2848 38.7447Z" fill="#2F52A4"/>
        <path d="M32.183 48.8846V0L18.4586 7.25847L16.0181 8.8477L11.7117 11.6488L9.26282 13.238V37.3071L13.6573 34.9799V15.3556L16.2403 13.8334L15.8126 13.628L20.6348 11.0785L20.79 11.154L23.373 9.63184L27.7885 7.29621V41.8819L24.0691 40.0914L19.2469 42.6409L32.183 48.8846Z" fill="#2F52A4"/>
        <path d="M22.9202 37.8772V12.8185L20.9032 14.0052L18.5257 15.4057V35.2271L16.3662 36.3677L16.1733 36.4683L11.5439 38.9171L8.80996 40.368L6.7469 41.4582L4.3945 42.7036V8.11373L8.1097 9.90842L9.06156 10.3697L10.3405 9.53942L13.368 7.56861L12.9361 7.35894L0 1.11523V49.9998L13.6993 42.7539L13.7244 42.7414L16.4626 41.2947L21.2848 38.7452L22.9202 37.8772ZM20.79 11.1538L20.6349 11.0783L15.8126 13.6278L16.2404 13.8333L20.79 11.1538Z" fill="#2F52A4"/>
        <path d="M20.7899 11.1536L20.6347 11.0781L15.8125 13.6276L16.2402 13.8331L20.7899 11.1536Z" fill="#2F52A4"/>
    </g>
</g>
</svg>
