<svg width="1138" height="735" viewBox="0 0 1138 735" fill="none" xmlns="http://www.w3.org/2000/svg">
<g clip-path="url(#clip0_1397_2419)">
<path d="M-403.615 -419L-403.615 1333M-353.569 -419L-353.569 1333M-303.523 -419L-303.523 1333M-253.477 -419L-253.477 1333M-203.43 -419L-203.43 1333M-153.384 -419L-153.384 1333M-103.338 -419L-103.338 1333M-53.292 -419L-53.2921 1333M-3.24582 -419L-3.24594 1333M46.8003 -419L46.8002 1333M96.8465 -419L96.8464 1333M146.893 -419L146.893 1333M196.939 -419L196.939 1333M246.985 -419L246.985 1333M297.031 -419L297.031 1333M347.077 -419L347.077 1333M397.123 -419L397.123 1333M447.169 -419L447.169 1333M497.216 -419L497.215 1333M547.262 -419L547.262 1333M597.308 -419L597.308 1333M647.354 -419L647.354 1333M697.4 -419L697.4 1333M747.446 -419L747.446 1333M797.492 -419L797.492 1333M847.539 -419L847.538 1333M897.585 -419L897.585 1333M947.631 -419L947.631 1333M997.677 -419L997.677 1333M1047.72 -419L1047.72 1333M1097.77 -419L1097.77 1333M1147.82 -419L1147.82 1333M1197.86 -419V1333M1247.91 -419V1333M1297.95 -419V1333M1348 -419V1333M-404 1332.23H1347.61M-404 1282.2H1347.61M-404 1232.16H1347.61M-404 1182.12H1347.61M-404 1132.09H1347.61M-404 1082.05H1347.61M-404 1032.02H1347.61M-404 981.984H1347.61M-404 931.949H1347.61M-404 881.914H1347.61M-404 831.879H1347.61M-404 781.844H1347.61M-404 731.808H1347.61M-404 681.773H1347.61M-404 631.738H1347.61M-404 581.703H1347.61M-404 531.668H1347.61M-404 481.633H1347.61M-404 431.597H1347.61M-404 381.562H1347.61M-404 331.527H1347.61M-404 281.492H1347.61M-404 231.457L1347.61 231.457M-404 181.422L1347.61 181.422M-404 131.387L1347.61 131.387M-404 81.3514L1347.61 81.3514M-404 31.3163L1347.61 31.3163M-404 -18.7189L1347.61 -18.7189M-404 -68.754L1347.61 -68.7541M-404 -118.789L1347.61 -118.789M-404 -168.824L1347.61 -168.824M-404 -218.859L1347.61 -218.859M-404 -268.895L1347.61 -268.895M-404 -318.93L1347.61 -318.93M-404 -368.965L1347.61 -368.965M-404 -419L1347.61 -419" stroke="url(#paint0_radial_1397_2419)" stroke-opacity="0.2"/>
<g opacity="0.2" clip-path="url(#clip1_1397_2419)">
<path d="M367.48 658.779C363.618 659.522 361.705 663.822 360.875 666.502C360.797 666.752 360.778 667.017 360.822 667.275C360.865 667.533 360.968 667.778 361.123 667.988C361.278 668.199 361.481 668.371 361.715 668.489C361.948 668.606 362.207 668.668 362.468 668.667H368.667C369.362 668.667 370.049 668.523 370.686 668.242C371.322 667.961 371.892 667.551 372.361 667.038C372.829 666.524 373.186 665.919 373.407 665.26C373.629 664.601 373.71 663.903 373.647 663.211C373.558 662.503 373.324 661.822 372.96 661.209C372.596 660.596 372.109 660.065 371.531 659.649C370.952 659.233 370.293 658.941 369.596 658.791C368.899 658.642 368.179 658.637 367.48 658.779Z" fill="#374957"/>
<path d="M390.333 651.965C389.891 651.965 389.467 652.141 389.155 652.453C388.842 652.766 388.667 653.19 388.667 653.632V662H382C380.674 662 379.402 662.527 378.464 663.464C377.527 664.402 377 665.674 377 667V673.667H360.333C359.007 673.667 357.735 673.14 356.798 672.202C355.86 671.265 355.333 669.993 355.333 668.667V645.333C355.333 644.007 355.86 642.735 356.798 641.798C357.735 640.86 359.007 640.333 360.333 640.333H378.737C379.179 640.333 379.603 640.158 379.915 639.845C380.228 639.533 380.403 639.109 380.403 638.667C380.403 638.225 380.228 637.801 379.915 637.488C379.603 637.176 379.179 637 378.737 637H360.333C358.124 637.003 356.006 637.881 354.444 639.444C352.881 641.006 352.003 643.124 352 645.333V668.667C352.003 670.876 352.881 672.994 354.444 674.556C356.006 676.119 358.124 676.997 360.333 677H379.238C380.333 677.003 381.417 676.789 382.429 676.37C383.44 675.951 384.358 675.336 385.13 674.56L389.56 670.13C390.336 669.358 390.951 668.44 391.37 667.429C391.789 666.417 392.003 665.333 392 664.238V653.632C392 653.19 391.824 652.766 391.512 652.453C391.199 652.141 390.775 651.965 390.333 651.965ZM382.773 672.203C382.101 672.868 381.256 673.33 380.333 673.537V667C380.333 666.558 380.509 666.134 380.821 665.821C381.134 665.509 381.558 665.333 382 665.333H388.542C388.335 666.256 387.873 667.101 387.208 667.773L382.773 672.203Z" fill="#374957"/>
<path d="M376.277 660.615C375.947 660.615 375.625 660.517 375.351 660.334C375.077 660.151 374.863 659.891 374.737 659.586C374.611 659.282 374.578 658.947 374.642 658.623C374.707 658.3 374.865 658.003 375.098 657.77L388.187 644.682C388.333 644.536 388.449 644.362 388.528 644.172C388.607 643.981 388.648 643.776 388.648 643.569C388.648 643.363 388.607 643.158 388.528 642.967C388.449 642.776 388.333 642.603 388.187 642.457C388.038 642.302 387.858 642.181 387.658 642.102C387.458 642.023 387.244 641.988 387.03 641.999C386.816 642.003 386.605 642.052 386.41 642.142C386.216 642.232 386.042 642.361 385.9 642.522L373.233 656.534C372.937 656.862 372.522 657.058 372.081 657.081C371.639 657.103 371.207 656.949 370.879 656.653C370.551 656.356 370.354 655.942 370.332 655.5C370.31 655.059 370.464 654.627 370.76 654.299L383.427 640.299C383.871 639.803 384.411 639.402 385.015 639.121C385.618 638.841 386.273 638.685 386.938 638.665C387.605 638.651 388.267 638.771 388.887 639.018C389.506 639.264 390.069 639.633 390.543 640.102C391.462 641.023 391.978 642.27 391.978 643.571C391.978 644.872 391.462 646.119 390.543 647.04L377.455 660.129C377.3 660.284 377.117 660.406 376.915 660.49C376.712 660.573 376.495 660.616 376.277 660.615Z" fill="#374957"/>
</g>
</g>
<defs>
<radialGradient id="paint0_radial_1397_2419" cx="0" cy="0" r="1" gradientUnits="userSpaceOnUse" gradientTransform="translate(472 457) rotate(46.8427) scale(527.775)">
<stop/>
<stop offset="1" stop-opacity="0"/>
</radialGradient>
<clipPath id="clip0_1397_2419">
<rect width="1138" height="735" fill="white"/>
</clipPath>
<clipPath id="clip1_1397_2419">
<rect width="40" height="40" fill="white" transform="translate(352 637)"/>
</clipPath>
</defs>
</svg>
