<svg width="1440" height="1135" viewBox="0 0 1440 1135" fill="none" xmlns="http://www.w3.org/2000/svg">
<g clip-path="url(#clip0_1397_2415)">
<path d="M-336.615 3.39674e-05L-336.615 1752M-286.569 3.39674e-05L-286.569 1752M-236.523 3.39674e-05L-236.523 1752M-186.477 3.39674e-05L-186.477 1752M-136.43 3.39674e-05L-136.43 1752M-86.3843 3.39674e-05L-86.3843 1752M-36.3381 3.39674e-05L-36.3382 1752M13.708 3.39674e-05L13.7079 1752M63.7542 3.39674e-05L63.7541 1752M113.8 3.39674e-05L113.8 1752M163.846 3.39674e-05L163.846 1752M213.893 3.39674e-05L213.893 1752M263.939 3.39674e-05L263.939 1752M313.985 3.39674e-05L313.985 1752M364.031 3.39674e-05L364.031 1752M414.077 3.39674e-05L414.077 1752M464.123 3.39674e-05L464.123 1752M514.169 3.39674e-05L514.169 1752M564.216 3.39674e-05L564.215 1752M614.262 3.39674e-05L614.262 1752M664.308 3.39674e-05L664.308 1752M714.354 3.39674e-05L714.354 1752M764.4 3.39674e-05L764.4 1752M814.446 3.39674e-05L814.446 1752M864.492 3.39674e-05L864.492 1752M914.539 3.39674e-05L914.538 1752M964.585 3.39674e-05L964.585 1752M1014.63 3.39674e-05L1014.63 1752M1064.68 3.39674e-05L1064.68 1752M1114.72 3.39674e-05L1114.72 1752M1164.77 3.39674e-05L1164.77 1752M1214.82 3.39674e-05L1214.82 1752M1264.86 3.39674e-05V1752M1314.91 3.39674e-05V1752M1364.95 3.39674e-05V1752M1415 3.39674e-05V1752M-337 1751.23H1414.61M-337 1701.2H1414.61M-337 1651.16H1414.61M-337 1601.12H1414.61M-337 1551.09H1414.61M-337 1501.05H1414.61M-337 1451.02H1414.61M-337 1400.98H1414.61M-337 1350.95H1414.61M-337 1300.91H1414.61M-337 1250.88H1414.61M-337 1200.84H1414.61M-337 1150.81H1414.61M-337 1100.77H1414.61M-337 1050.74H1414.61M-337 1000.7H1414.61M-337 950.668H1414.61M-337 900.633H1414.61M-337 850.597H1414.61M-337 800.562H1414.61M-337 750.527H1414.61M-337 700.492H1414.61M-337 650.457L1414.61 650.457M-337 600.422L1414.61 600.422M-337 550.387L1414.61 550.387M-337 500.351L1414.61 500.351M-337 450.316L1414.61 450.316M-337 400.281L1414.61 400.281M-337 350.246L1414.61 350.246M-337 300.211L1414.61 300.211M-337 250.176L1414.61 250.176M-337 200.141L1414.61 200.141M-337 150.105L1414.61 150.105M-337 100.07L1414.61 100.07M-337 50.0352L1414.61 50.0351M-337 3.39506e-05L1414.61 0" stroke="url(#paint0_radial_1397_2415)" stroke-opacity="0.5"/>
<g opacity="0.3">
<g clip-path="url(#clip1_1397_2415)">
<path d="M1347.73 144.125L1330.66 127.047C1327.49 123.854 1323.71 121.322 1319.54 119.598C1315.38 117.874 1310.92 116.992 1306.41 117.004H1284.29C1277.8 117.012 1271.57 119.595 1266.98 124.187C1262.39 128.779 1259.81 135.005 1259.8 141.499V210.087C1259.81 216.581 1262.39 222.807 1266.98 227.399C1271.57 231.991 1277.8 234.574 1284.29 234.582H1333.29C1339.78 234.574 1346.01 231.991 1350.6 227.399C1355.19 222.807 1357.77 216.581 1357.78 210.087V168.371C1357.79 163.866 1356.91 159.403 1355.19 155.241C1353.46 151.079 1350.93 147.301 1347.73 144.125ZM1340.81 151.053C1342.3 152.592 1343.59 154.321 1344.63 156.197H1323.49C1322.19 156.197 1320.94 155.681 1320.02 154.762C1319.1 153.843 1318.59 152.597 1318.59 151.298V130.153C1320.46 131.196 1322.2 132.481 1323.74 133.974L1340.81 151.053ZM1347.98 210.087C1347.98 213.985 1346.43 217.723 1343.68 220.479C1340.92 223.236 1337.18 224.784 1333.29 224.784H1284.29C1280.4 224.784 1276.66 223.236 1273.9 220.479C1271.15 217.723 1269.6 213.985 1269.6 210.087V141.499C1269.6 137.602 1271.15 133.863 1273.9 131.107C1276.66 128.351 1280.4 126.802 1284.29 126.802H1306.41C1307.22 126.802 1308 126.959 1308.79 127.032V151.298C1308.79 155.196 1310.34 158.934 1313.09 161.69C1315.85 164.446 1319.59 165.995 1323.49 165.995H1347.75C1347.83 166.789 1347.98 167.563 1347.98 168.371V210.087Z" fill="black"/>
</g>
<path d="M1309.88 172.949C1309.65 172.703 1309.33 172.562 1309 172.562C1308.67 172.562 1308.35 172.703 1308.12 172.949L1301.79 179.876C1301.35 180.36 1301.38 181.111 1301.87 181.553C1302.35 181.996 1303.1 181.962 1303.54 181.478L1307.81 176.809V194.333C1307.81 194.989 1308.34 195.521 1309 195.521C1309.66 195.521 1310.19 194.989 1310.19 194.333V176.809L1314.46 181.478C1314.9 181.962 1315.65 181.996 1316.13 181.553C1316.62 181.111 1316.65 180.36 1316.21 179.876L1309.88 172.949Z" fill="black"/>
<path d="M1295.94 192.75C1295.94 192.094 1295.41 191.562 1294.75 191.562C1294.09 191.562 1293.56 192.094 1293.56 192.75V192.837C1293.56 195.002 1293.56 196.748 1293.75 198.12C1293.94 199.545 1294.35 200.745 1295.3 201.698C1296.25 202.651 1297.45 203.061 1298.88 203.253C1300.25 203.438 1302 203.438 1304.16 203.438H1313.84C1316 203.438 1317.75 203.438 1319.12 203.253C1320.55 203.061 1321.75 202.651 1322.7 201.698C1323.65 200.745 1324.06 199.545 1324.25 198.12C1324.44 196.748 1324.44 195.002 1324.44 192.837V192.75C1324.44 192.094 1323.91 191.562 1323.25 191.562C1322.59 191.562 1322.06 192.094 1322.06 192.75C1322.06 195.023 1322.06 196.608 1321.9 197.804C1321.74 198.966 1321.46 199.581 1321.02 200.019C1320.58 200.457 1319.97 200.743 1318.8 200.899C1317.61 201.06 1316.02 201.062 1313.75 201.062H1304.25C1301.98 201.062 1300.39 201.06 1299.2 200.899C1298.03 200.743 1297.42 200.457 1296.98 200.019C1296.54 199.581 1296.26 198.966 1296.1 197.804C1295.94 196.608 1295.94 195.023 1295.94 192.75Z" fill="black"/>
<path d="M1271.03 262.362C1269.74 262.362 1268.73 261.993 1267.99 261.256C1267.26 260.519 1266.89 259.441 1266.89 258.022V252.45H1268.29V257.966C1268.29 259.058 1268.53 259.856 1269 260.36C1269.49 260.864 1270.17 261.116 1271.05 261.116C1271.93 261.116 1272.61 260.864 1273.09 260.36C1273.58 259.856 1273.82 259.058 1273.82 257.966V252.45H1275.18V258.022C1275.18 259.441 1274.81 260.519 1274.07 261.256C1273.34 261.993 1272.33 262.362 1271.03 262.362ZM1281.78 262.334C1281.17 262.334 1280.6 262.194 1280.09 261.914C1279.59 261.625 1279.18 261.2 1278.87 260.64C1278.57 260.08 1278.42 259.38 1278.42 258.54C1278.42 257.7 1278.57 257 1278.86 256.44C1279.16 255.88 1279.56 255.46 1280.06 255.18C1280.58 254.9 1281.15 254.76 1281.78 254.76C1282.51 254.76 1283.16 254.919 1283.72 255.236C1284.28 255.553 1284.72 255.997 1285.05 256.566C1285.37 257.126 1285.54 257.784 1285.54 258.54C1285.54 259.296 1285.37 259.959 1285.05 260.528C1284.72 261.097 1284.28 261.541 1283.72 261.858C1283.16 262.175 1282.51 262.334 1281.78 262.334ZM1277.85 264.966V254.83H1279.14V256.832L1279.05 258.554L1279.19 260.276V264.966H1277.85ZM1281.67 261.158C1282.15 261.158 1282.57 261.051 1282.95 260.836C1283.33 260.621 1283.63 260.318 1283.84 259.926C1284.07 259.525 1284.18 259.063 1284.18 258.54C1284.18 258.008 1284.07 257.551 1283.84 257.168C1283.63 256.776 1283.33 256.473 1282.95 256.258C1282.57 256.043 1282.15 255.936 1281.67 255.936C1281.21 255.936 1280.78 256.043 1280.4 256.258C1280.02 256.473 1279.73 256.776 1279.5 257.168C1279.29 257.551 1279.18 258.008 1279.18 258.54C1279.18 259.063 1279.29 259.525 1279.5 259.926C1279.73 260.318 1280.02 260.621 1280.4 260.836C1280.78 261.051 1281.21 261.158 1281.67 261.158ZM1287.39 262.25V251.862H1288.74V262.25H1287.39ZM1294.48 262.334C1293.73 262.334 1293.07 262.171 1292.49 261.844C1291.91 261.517 1291.46 261.069 1291.12 260.5C1290.79 259.921 1290.62 259.268 1290.62 258.54C1290.62 257.803 1290.79 257.149 1291.12 256.58C1291.46 256.011 1291.91 255.567 1292.49 255.25C1293.07 254.923 1293.73 254.76 1294.48 254.76C1295.22 254.76 1295.88 254.923 1296.46 255.25C1297.04 255.567 1297.5 256.011 1297.83 256.58C1298.16 257.14 1298.33 257.793 1298.33 258.54C1298.33 259.277 1298.16 259.931 1297.83 260.5C1297.5 261.069 1297.04 261.517 1296.46 261.844C1295.88 262.171 1295.22 262.334 1294.48 262.334ZM1294.48 261.158C1294.96 261.158 1295.38 261.051 1295.76 260.836C1296.14 260.621 1296.44 260.318 1296.65 259.926C1296.87 259.525 1296.97 259.063 1296.97 258.54C1296.97 258.008 1296.87 257.551 1296.65 257.168C1296.44 256.776 1296.14 256.473 1295.76 256.258C1295.38 256.043 1294.96 255.936 1294.48 255.936C1294.01 255.936 1293.58 256.043 1293.21 256.258C1292.83 256.473 1292.54 256.776 1292.31 257.168C1292.09 257.551 1291.98 258.008 1291.98 258.54C1291.98 259.063 1292.09 259.525 1292.31 259.926C1292.54 260.318 1292.83 260.621 1293.21 260.836C1293.58 261.051 1294.01 261.158 1294.48 261.158ZM1304.73 262.25V260.682L1304.66 260.388V257.714C1304.66 257.145 1304.49 256.706 1304.15 256.398C1303.83 256.081 1303.33 255.922 1302.67 255.922C1302.23 255.922 1301.8 255.997 1301.38 256.146C1300.96 256.286 1300.61 256.477 1300.32 256.72L1299.76 255.712C1300.14 255.404 1300.6 255.171 1301.13 255.012C1301.67 254.844 1302.24 254.76 1302.82 254.76C1303.84 254.76 1304.62 255.007 1305.18 255.502C1305.73 255.997 1306 256.753 1306 257.77V262.25H1304.73ZM1302.29 262.334C1301.74 262.334 1301.26 262.241 1300.84 262.054C1300.42 261.867 1300.11 261.611 1299.88 261.284C1299.66 260.948 1299.55 260.57 1299.55 260.15C1299.55 259.749 1299.64 259.385 1299.83 259.058C1300.02 258.731 1300.34 258.47 1300.77 258.274C1301.2 258.078 1301.79 257.98 1302.53 257.98H1304.88V258.946H1302.59C1301.91 258.946 1301.46 259.058 1301.23 259.282C1300.99 259.506 1300.88 259.777 1300.88 260.094C1300.88 260.458 1301.02 260.752 1301.31 260.976C1301.6 261.191 1302 261.298 1302.52 261.298C1303.02 261.298 1303.46 261.186 1303.83 260.962C1304.21 260.738 1304.49 260.411 1304.66 259.982L1304.92 260.906C1304.75 261.345 1304.43 261.695 1303.99 261.956C1303.54 262.208 1302.97 262.334 1302.29 262.334ZM1311.55 262.334C1310.84 262.334 1310.19 262.175 1309.62 261.858C1309.06 261.541 1308.62 261.097 1308.29 260.528C1307.97 259.959 1307.8 259.296 1307.8 258.54C1307.8 257.784 1307.97 257.126 1308.29 256.566C1308.62 255.997 1309.06 255.553 1309.62 255.236C1310.19 254.919 1310.84 254.76 1311.55 254.76C1312.18 254.76 1312.74 254.9 1313.25 255.18C1313.75 255.46 1314.15 255.88 1314.45 256.44C1314.76 257 1314.91 257.7 1314.91 258.54C1314.91 259.38 1314.77 260.08 1314.47 260.64C1314.18 261.2 1313.78 261.625 1313.28 261.914C1312.77 262.194 1312.2 262.334 1311.55 262.334ZM1311.67 261.158C1312.13 261.158 1312.55 261.051 1312.93 260.836C1313.31 260.621 1313.61 260.318 1313.82 259.926C1314.05 259.525 1314.16 259.063 1314.16 258.54C1314.16 258.008 1314.05 257.551 1313.82 257.168C1313.61 256.776 1313.31 256.473 1312.93 256.258C1312.55 256.043 1312.13 255.936 1311.67 255.936C1311.19 255.936 1310.77 256.043 1310.39 256.258C1310.02 256.473 1309.72 256.776 1309.5 257.168C1309.27 257.551 1309.16 258.008 1309.16 258.54C1309.16 259.063 1309.27 259.525 1309.5 259.926C1309.72 260.318 1310.02 260.621 1310.39 260.836C1310.77 261.051 1311.19 261.158 1311.67 261.158ZM1314.2 262.25V260.248L1314.28 258.526L1314.14 256.804V251.862H1315.49V262.25H1314.2ZM1323.25 257.084H1328.3V258.288H1323.25V257.084ZM1323.39 262.25H1321.99V252.45H1328.9V253.668H1323.39V262.25ZM1330.68 262.25V254.83H1332.02V262.25H1330.68ZM1331.35 253.402C1331.09 253.402 1330.87 253.318 1330.69 253.15C1330.52 252.982 1330.44 252.777 1330.44 252.534C1330.44 252.282 1330.52 252.072 1330.69 251.904C1330.87 251.736 1331.09 251.652 1331.35 251.652C1331.61 251.652 1331.83 251.736 1331.99 251.904C1332.17 252.063 1332.26 252.263 1332.26 252.506C1332.26 252.758 1332.18 252.973 1332.01 253.15C1331.84 253.318 1331.62 253.402 1331.35 253.402ZM1334.59 262.25V251.862H1335.93V262.25H1334.59ZM1341.8 262.334C1341.01 262.334 1340.31 262.171 1339.7 261.844C1339.11 261.517 1338.64 261.069 1338.3 260.5C1337.98 259.931 1337.81 259.277 1337.81 258.54C1337.81 257.803 1337.97 257.149 1338.29 256.58C1338.62 256.011 1339.06 255.567 1339.62 255.25C1340.19 254.923 1340.83 254.76 1341.54 254.76C1342.26 254.76 1342.89 254.919 1343.44 255.236C1343.99 255.553 1344.42 256.001 1344.73 256.58C1345.05 257.149 1345.2 257.817 1345.2 258.582C1345.2 258.638 1345.2 258.703 1345.19 258.778C1345.19 258.853 1345.19 258.923 1345.18 258.988H1338.86V258.022H1344.48L1343.93 258.358C1343.94 257.882 1343.84 257.457 1343.64 257.084C1343.43 256.711 1343.15 256.421 1342.78 256.216C1342.43 256.001 1342.01 255.894 1341.54 255.894C1341.07 255.894 1340.65 256.001 1340.29 256.216C1339.93 256.421 1339.64 256.715 1339.44 257.098C1339.23 257.471 1339.13 257.901 1339.13 258.386V258.61C1339.13 259.105 1339.24 259.548 1339.46 259.94C1339.7 260.323 1340.02 260.621 1340.43 260.836C1340.84 261.051 1341.31 261.158 1341.84 261.158C1342.28 261.158 1342.68 261.083 1343.03 260.934C1343.4 260.785 1343.72 260.561 1343.99 260.262L1344.73 261.13C1344.39 261.522 1343.97 261.821 1343.47 262.026C1342.97 262.231 1342.42 262.334 1341.8 262.334ZM1349.2 262.334C1348.58 262.334 1347.99 262.25 1347.43 262.082C1346.88 261.914 1346.45 261.709 1346.13 261.466L1346.69 260.402C1347.01 260.617 1347.4 260.799 1347.87 260.948C1348.34 261.097 1348.81 261.172 1349.3 261.172C1349.92 261.172 1350.37 261.083 1350.64 260.906C1350.92 260.729 1351.06 260.481 1351.06 260.164C1351.06 259.931 1350.98 259.749 1350.81 259.618C1350.64 259.487 1350.42 259.389 1350.14 259.324C1349.87 259.259 1349.56 259.203 1349.23 259.156C1348.89 259.1 1348.55 259.035 1348.22 258.96C1347.88 258.876 1347.57 258.764 1347.29 258.624C1347.01 258.475 1346.79 258.274 1346.62 258.022C1346.45 257.761 1346.37 257.415 1346.37 256.986C1346.37 256.538 1346.5 256.146 1346.75 255.81C1347 255.474 1347.36 255.217 1347.81 255.04C1348.28 254.853 1348.83 254.76 1349.46 254.76C1349.95 254.76 1350.44 254.821 1350.93 254.942C1351.44 255.054 1351.85 255.217 1352.17 255.432L1351.59 256.496C1351.26 256.272 1350.91 256.118 1350.54 256.034C1350.18 255.95 1349.81 255.908 1349.45 255.908C1348.86 255.908 1348.42 256.006 1348.13 256.202C1347.85 256.389 1347.7 256.631 1347.7 256.93C1347.7 257.182 1347.78 257.378 1347.95 257.518C1348.13 257.649 1348.35 257.751 1348.62 257.826C1348.9 257.901 1349.21 257.966 1349.55 258.022C1349.88 258.069 1350.22 258.134 1350.56 258.218C1350.89 258.293 1351.2 258.4 1351.47 258.54C1351.75 258.68 1351.97 258.876 1352.14 259.128C1352.32 259.38 1352.4 259.716 1352.4 260.136C1352.4 260.584 1352.27 260.971 1352.01 261.298C1351.75 261.625 1351.38 261.881 1350.91 262.068C1350.43 262.245 1349.86 262.334 1349.2 262.334Z" fill="black"/>
<path d="M1284.17 285.594V278.594H1287.02C1287.77 278.594 1288.42 278.744 1288.98 279.044C1289.55 279.337 1289.99 279.747 1290.3 280.274C1290.62 280.8 1290.77 281.407 1290.77 282.094C1290.77 282.78 1290.62 283.387 1290.3 283.914C1289.99 284.44 1289.55 284.854 1288.98 285.154C1288.42 285.447 1287.77 285.594 1287.02 285.594H1284.17ZM1284.91 284.954H1286.98C1287.6 284.954 1288.14 284.834 1288.59 284.594C1289.05 284.347 1289.41 284.01 1289.66 283.584C1289.92 283.15 1290.04 282.654 1290.04 282.094C1290.04 281.527 1289.92 281.03 1289.66 280.604C1289.41 280.177 1289.05 279.844 1288.59 279.604C1288.14 279.357 1287.6 279.234 1286.98 279.234H1284.91V284.954ZM1292.28 285.594V280.344H1292.96V281.774L1292.89 281.524C1293.04 281.124 1293.29 280.82 1293.63 280.614C1293.98 280.4 1294.41 280.294 1294.92 280.294V280.984C1294.9 280.984 1294.87 280.984 1294.84 280.984C1294.82 280.977 1294.79 280.974 1294.76 280.974C1294.21 280.974 1293.78 281.144 1293.46 281.484C1293.15 281.817 1292.99 282.294 1292.99 282.914V285.594H1292.28ZM1299.12 285.594V284.434L1299.09 284.244V282.304C1299.09 281.857 1298.96 281.514 1298.71 281.274C1298.46 281.034 1298.09 280.914 1297.6 280.914C1297.26 280.914 1296.94 280.97 1296.63 281.084C1296.32 281.197 1296.06 281.347 1295.85 281.534L1295.53 281.004C1295.8 280.777 1296.12 280.604 1296.49 280.484C1296.86 280.357 1297.26 280.294 1297.67 280.294C1298.35 280.294 1298.87 280.464 1299.24 280.804C1299.61 281.137 1299.8 281.647 1299.8 282.334V285.594H1299.12ZM1297.31 285.644C1296.92 285.644 1296.57 285.58 1296.28 285.454C1295.99 285.32 1295.77 285.14 1295.62 284.914C1295.47 284.68 1295.39 284.414 1295.39 284.114C1295.39 283.84 1295.45 283.594 1295.58 283.374C1295.71 283.147 1295.93 282.967 1296.22 282.834C1296.52 282.694 1296.92 282.624 1297.42 282.624H1299.23V283.154H1297.44C1296.93 283.154 1296.58 283.244 1296.38 283.424C1296.19 283.604 1296.09 283.827 1296.09 284.094C1296.09 284.394 1296.21 284.634 1296.44 284.814C1296.67 284.994 1297 285.084 1297.42 285.084C1297.82 285.084 1298.16 284.994 1298.45 284.814C1298.74 284.627 1298.96 284.36 1299.09 284.014L1299.25 284.504C1299.12 284.85 1298.88 285.127 1298.55 285.334C1298.22 285.54 1297.81 285.644 1297.31 285.644ZM1303.97 287.584C1303.49 287.584 1303.03 287.514 1302.59 287.374C1302.15 287.234 1301.79 287.034 1301.52 286.774L1301.88 286.234C1302.12 286.454 1302.43 286.627 1302.79 286.754C1303.15 286.887 1303.54 286.954 1303.95 286.954C1304.61 286.954 1305.1 286.797 1305.42 286.484C1305.73 286.177 1305.89 285.697 1305.89 285.044V283.734L1305.99 282.834L1305.92 281.934V280.344H1306.6V284.954C1306.6 285.86 1306.37 286.524 1305.93 286.944C1305.49 287.37 1304.83 287.584 1303.97 287.584ZM1303.84 285.394C1303.34 285.394 1302.89 285.287 1302.49 285.074C1302.09 284.854 1301.77 284.55 1301.54 284.164C1301.31 283.777 1301.2 283.334 1301.2 282.834C1301.2 282.334 1301.31 281.894 1301.54 281.514C1301.77 281.127 1302.09 280.827 1302.49 280.614C1302.89 280.4 1303.34 280.294 1303.84 280.294C1304.3 280.294 1304.72 280.39 1305.1 280.584C1305.47 280.777 1305.77 281.064 1305.99 281.444C1306.21 281.824 1306.32 282.287 1306.32 282.834C1306.32 283.38 1306.21 283.844 1305.99 284.224C1305.77 284.604 1305.47 284.894 1305.1 285.094C1304.72 285.294 1304.3 285.394 1303.84 285.394ZM1303.91 284.764C1304.29 284.764 1304.64 284.684 1304.94 284.524C1305.24 284.357 1305.47 284.13 1305.65 283.844C1305.82 283.55 1305.91 283.214 1305.91 282.834C1305.91 282.454 1305.82 282.12 1305.65 281.834C1305.47 281.547 1305.24 281.324 1304.94 281.164C1304.64 280.997 1304.29 280.914 1303.91 280.914C1303.53 280.914 1303.18 280.997 1302.88 281.164C1302.58 281.324 1302.34 281.547 1302.17 281.834C1302 282.12 1301.92 282.454 1301.92 282.834C1301.92 283.214 1302 283.55 1302.17 283.844C1302.34 284.13 1302.58 284.357 1302.88 284.524C1303.18 284.684 1303.53 284.764 1303.91 284.764ZM1313.28 285.644C1312.78 285.644 1312.33 285.53 1311.93 285.304C1311.54 285.077 1311.23 284.764 1311 284.364C1310.77 283.957 1310.66 283.49 1310.66 282.964C1310.66 282.43 1310.77 281.964 1311 281.564C1311.23 281.164 1311.54 280.854 1311.93 280.634C1312.33 280.407 1312.78 280.294 1313.28 280.294C1313.74 280.294 1314.15 280.397 1314.51 280.604C1314.88 280.81 1315.17 281.114 1315.38 281.514C1315.6 281.907 1315.71 282.39 1315.71 282.964C1315.71 283.53 1315.6 284.014 1315.39 284.414C1315.18 284.814 1314.89 285.12 1314.52 285.334C1314.16 285.54 1313.75 285.644 1313.28 285.644ZM1313.33 285.014C1313.7 285.014 1314.04 284.93 1314.33 284.764C1314.63 284.59 1314.86 284.35 1315.03 284.044C1315.2 283.73 1315.29 283.37 1315.29 282.964C1315.29 282.55 1315.2 282.19 1315.03 281.884C1314.86 281.577 1314.63 281.34 1314.33 281.174C1314.04 281 1313.7 280.914 1313.33 280.914C1312.96 280.914 1312.63 281 1312.34 281.174C1312.05 281.34 1311.81 281.577 1311.64 281.884C1311.47 282.19 1311.38 282.55 1311.38 282.964C1311.38 283.37 1311.47 283.73 1311.64 284.044C1311.81 284.35 1312.05 284.59 1312.34 284.764C1312.63 284.93 1312.96 285.014 1313.33 285.014ZM1315.31 285.594V284.014L1315.38 282.954L1315.28 281.894V278.174H1315.99V285.594H1315.31ZM1317.97 285.594V280.344H1318.65V281.774L1318.58 281.524C1318.73 281.124 1318.97 280.82 1319.32 280.614C1319.67 280.4 1320.1 280.294 1320.61 280.294V280.984C1320.58 280.984 1320.56 280.984 1320.53 280.984C1320.5 280.977 1320.48 280.974 1320.45 280.974C1319.9 280.974 1319.46 281.144 1319.15 281.484C1318.84 281.817 1318.68 282.294 1318.68 282.914V285.594H1317.97ZM1324 285.644C1323.49 285.644 1323.03 285.53 1322.63 285.304C1322.23 285.07 1321.91 284.754 1321.68 284.354C1321.44 283.947 1321.33 283.484 1321.33 282.964C1321.33 282.437 1321.44 281.974 1321.68 281.574C1321.91 281.174 1322.23 280.86 1322.63 280.634C1323.03 280.407 1323.48 280.294 1324 280.294C1324.52 280.294 1324.98 280.407 1325.38 280.634C1325.78 280.86 1326.1 281.174 1326.33 281.574C1326.56 281.974 1326.68 282.437 1326.68 282.964C1326.68 283.484 1326.56 283.947 1326.33 284.354C1326.1 284.754 1325.78 285.07 1325.38 285.304C1324.97 285.53 1324.51 285.644 1324 285.644ZM1324 285.014C1324.38 285.014 1324.71 284.93 1325.01 284.764C1325.3 284.59 1325.53 284.35 1325.7 284.044C1325.87 283.73 1325.96 283.37 1325.96 282.964C1325.96 282.55 1325.87 282.19 1325.7 281.884C1325.53 281.577 1325.3 281.34 1325.01 281.174C1324.71 281 1324.38 280.914 1324.01 280.914C1323.63 280.914 1323.3 281 1323.01 281.174C1322.71 281.34 1322.48 281.577 1322.31 281.884C1322.13 282.19 1322.05 282.55 1322.05 282.964C1322.05 283.37 1322.13 283.73 1322.31 284.044C1322.48 284.35 1322.71 284.59 1323.01 284.764C1323.3 284.93 1323.63 285.014 1324 285.014ZM1330.83 285.644C1330.38 285.644 1329.97 285.54 1329.6 285.334C1329.24 285.12 1328.94 284.817 1328.72 284.424C1328.51 284.024 1328.4 283.537 1328.4 282.964C1328.4 282.39 1328.51 281.907 1328.72 281.514C1328.94 281.114 1329.23 280.81 1329.59 280.604C1329.96 280.397 1330.37 280.294 1330.83 280.294C1331.33 280.294 1331.78 280.407 1332.17 280.634C1332.57 280.854 1332.89 281.167 1333.11 281.574C1333.34 281.974 1333.45 282.437 1333.45 282.964C1333.45 283.497 1333.34 283.964 1333.11 284.364C1332.89 284.764 1332.57 285.077 1332.17 285.304C1331.78 285.53 1331.33 285.644 1330.83 285.644ZM1328.12 287.534V280.344H1328.8V281.924L1328.73 282.974L1328.83 284.034V287.534H1328.12ZM1330.78 285.014C1331.16 285.014 1331.49 284.93 1331.78 284.764C1332.08 284.59 1332.31 284.35 1332.48 284.044C1332.66 283.73 1332.74 283.37 1332.74 282.964C1332.74 282.557 1332.66 282.2 1332.48 281.894C1332.31 281.587 1332.08 281.347 1331.78 281.174C1331.49 281 1331.16 280.914 1330.78 280.914C1330.41 280.914 1330.07 281 1329.77 281.174C1329.48 281.347 1329.25 281.587 1329.07 281.894C1328.91 282.2 1328.82 282.557 1328.82 282.964C1328.82 283.37 1328.91 283.73 1329.07 284.044C1329.25 284.35 1329.48 284.59 1329.77 284.764C1330.07 284.93 1330.41 285.014 1330.78 285.014Z" fill="black"/>
</g>
<g opacity="0.4">
<path fill-rule="evenodd" clip-rule="evenodd" d="M132.818 347.375L140.182 347.375C143.327 347.375 145.949 347.375 148.031 347.655C150.228 347.95 152.212 348.6 153.806 350.194C155.4 351.788 156.05 353.772 156.345 355.969C156.625 358.051 156.625 360.673 156.625 363.818V406.182C156.625 409.327 156.625 411.949 156.345 414.031C156.05 416.228 155.4 418.212 153.806 419.806C152.212 421.4 150.228 422.05 148.031 422.345C145.949 422.625 143.327 422.625 140.182 422.625H132.818C129.673 422.625 127.051 422.625 124.969 422.345C122.772 422.05 120.788 421.4 119.194 419.806C117.6 418.212 116.95 416.228 116.655 414.031C116.375 411.949 116.375 409.327 116.375 406.182V363.818C116.375 360.673 116.375 358.051 116.655 355.969C116.95 353.772 117.6 351.788 119.194 350.194C120.788 348.6 122.772 347.95 124.969 347.655C127.051 347.375 129.673 347.375 132.818 347.375ZM121.625 377.125H129.5C130.95 377.125 132.125 375.95 132.125 374.5C132.125 373.05 130.95 371.875 129.5 371.875H121.625V366.625L126 366.625C127.45 366.625 128.625 365.45 128.625 364C128.625 362.55 127.45 361.375 126 361.375L121.631 361.375C121.646 359.382 121.695 357.878 121.858 356.669C122.075 355.054 122.45 354.363 122.906 353.906C123.363 353.45 124.054 353.075 125.669 352.858C127.36 352.631 129.626 352.625 133 352.625L140 352.625C143.374 352.625 145.641 352.631 147.331 352.858C148.946 353.075 149.638 353.45 150.094 353.906C150.55 354.363 150.925 355.054 151.142 356.669C151.369 358.36 151.375 360.626 151.375 364V406C151.375 409.374 151.369 411.641 151.142 413.331C150.925 414.946 150.55 415.637 150.094 416.094C149.638 416.55 148.946 416.925 147.331 417.142C145.641 417.369 143.374 417.375 140 417.375H133C129.626 417.375 127.36 417.369 125.669 417.142C124.054 416.925 123.363 416.55 122.906 416.094C122.45 415.637 122.075 414.946 121.858 413.331C121.695 412.122 121.646 410.618 121.631 408.625H126C127.45 408.625 128.625 407.45 128.625 406C128.625 404.55 127.45 403.375 126 403.375H121.625V398.125L129.5 398.125C130.95 398.125 132.125 396.95 132.125 395.5C132.125 394.05 130.95 392.875 129.5 392.875L121.625 392.875V387.625H126C127.45 387.625 128.625 386.45 128.625 385C128.625 383.55 127.45 382.375 126 382.375H121.625V377.125ZM81.375 359.975C81.375 352.891 87.3798 347.375 94.5 347.375C101.62 347.375 107.625 352.891 107.625 359.975L107.625 397.547C107.625 399.448 107.625 400.642 107.471 401.829C107.289 403.226 106.948 404.599 106.454 405.923C106.035 407.046 105.474 408.111 104.578 409.813L99.3555 419.736C98.3989 421.553 96.4965 422.625 94.5 422.625C92.5035 422.625 90.6011 421.553 89.6445 419.736L84.4218 409.813C83.5259 408.111 82.9655 407.046 82.5463 405.923C82.0523 404.599 81.7109 403.226 81.5291 401.829C81.3748 400.642 81.3749 399.448 81.375 397.547L81.375 359.975ZM94.5 352.625C90.0223 352.625 86.625 356.041 86.625 359.975L86.625 361.917C86.9623 362.118 87.385 362.347 87.8873 362.578C89.4189 363.284 91.6693 364 94.5 364C97.3307 364 99.5811 363.284 101.113 362.578C101.615 362.347 102.038 362.118 102.375 361.917L102.375 359.975C102.375 356.041 98.9778 352.625 94.5 352.625ZM102.375 367.749C100.37 368.552 97.7052 369.25 94.5 369.25C91.2948 369.25 88.6298 368.552 86.625 367.749L86.625 397.368C86.625 399.504 86.63 400.342 86.7353 401.151C86.8653 402.151 87.1098 403.135 87.465 404.087C87.7531 404.859 88.1458 405.616 89.1506 407.525L92.5426 413.97H96.4574L99.8494 407.525C100.854 405.616 101.247 404.859 101.535 404.087C101.89 403.135 102.135 402.151 102.265 401.151C102.37 400.342 102.375 399.504 102.375 397.368L102.375 367.749ZM85.6788 361.282L85.6835 361.286C85.6776 361.281 85.6775 361.281 85.6788 361.282ZM103.314 361.288L103.321 361.282C103.32 361.283 103.318 361.285 103.314 361.288Z" fill="black"/>
<path d="M85.143 455.14C84.3963 455.14 83.701 455.019 83.057 454.776C82.4223 454.524 81.867 454.174 81.391 453.726C80.9243 453.269 80.5603 452.732 80.299 452.116C80.0377 451.5 79.907 450.828 79.907 450.1C79.907 449.372 80.0377 448.7 80.299 448.084C80.5603 447.468 80.929 446.936 81.405 446.488C81.881 446.031 82.4363 445.681 83.071 445.438C83.7057 445.186 84.401 445.06 85.157 445.06C85.9597 445.06 86.6923 445.2 87.355 445.48C88.0177 445.751 88.5777 446.157 89.035 446.698L87.859 447.804C87.5043 447.421 87.1077 447.137 86.669 446.95C86.2303 446.754 85.7543 446.656 85.241 446.656C84.7277 446.656 84.2563 446.74 83.827 446.908C83.407 447.076 83.0383 447.314 82.721 447.622C82.413 447.93 82.1703 448.294 81.993 448.714C81.825 449.134 81.741 449.596 81.741 450.1C81.741 450.604 81.825 451.066 81.993 451.486C82.1703 451.906 82.413 452.27 82.721 452.578C83.0383 452.886 83.407 453.124 83.827 453.292C84.2563 453.46 84.7277 453.544 85.241 453.544C85.7543 453.544 86.2303 453.451 86.669 453.264C87.1077 453.068 87.5043 452.774 87.859 452.382L89.035 453.502C88.5777 454.034 88.0177 454.44 87.355 454.72C86.6923 455 85.955 455.14 85.143 455.14ZM90.6109 455V447.524H92.2769V449.582L92.0809 448.98C92.3049 448.476 92.6549 448.093 93.1309 447.832C93.6162 447.571 94.2182 447.44 94.9369 447.44V449.106C94.8622 449.087 94.7922 449.078 94.7269 449.078C94.6616 449.069 94.5962 449.064 94.5309 449.064C93.8682 449.064 93.3409 449.26 92.9489 449.652C92.5569 450.035 92.3609 450.609 92.3609 451.374V455H90.6109ZM99.8671 455.098C99.0364 455.098 98.3084 454.935 97.6831 454.608C97.0671 454.272 96.5864 453.815 96.2411 453.236C95.9051 452.657 95.7371 451.999 95.7371 451.262C95.7371 450.515 95.9004 449.857 96.2271 449.288C96.5631 448.709 97.0204 448.257 97.5991 447.93C98.1871 447.603 98.8544 447.44 99.6011 447.44C100.329 447.44 100.978 447.599 101.547 447.916C102.116 448.233 102.564 448.681 102.891 449.26C103.218 449.839 103.381 450.52 103.381 451.304C103.381 451.379 103.376 451.463 103.367 451.556C103.367 451.649 103.362 451.738 103.353 451.822H97.1231V450.66H102.429L101.743 451.024C101.752 450.595 101.664 450.217 101.477 449.89C101.29 449.563 101.034 449.307 100.707 449.12C100.39 448.933 100.021 448.84 99.6011 448.84C99.1717 448.84 98.7937 448.933 98.4671 449.12C98.1497 449.307 97.8977 449.568 97.7111 449.904C97.5337 450.231 97.4451 450.618 97.4451 451.066V451.346C97.4451 451.794 97.5477 452.191 97.7531 452.536C97.9584 452.881 98.2477 453.147 98.6211 453.334C98.9944 453.521 99.4237 453.614 99.9091 453.614C100.329 453.614 100.707 453.549 101.043 453.418C101.379 453.287 101.678 453.082 101.939 452.802L102.877 453.88C102.541 454.272 102.116 454.575 101.603 454.79C101.099 454.995 100.52 455.098 99.8671 455.098ZM109.463 455V453.488L109.365 453.166V450.52C109.365 450.007 109.211 449.61 108.903 449.33C108.595 449.041 108.128 448.896 107.503 448.896C107.083 448.896 106.668 448.961 106.257 449.092C105.856 449.223 105.515 449.405 105.235 449.638L104.549 448.364C104.95 448.056 105.426 447.827 105.977 447.678C106.537 447.519 107.116 447.44 107.713 447.44C108.796 447.44 109.631 447.701 110.219 448.224C110.816 448.737 111.115 449.535 111.115 450.618V455H109.463ZM107.111 455.098C106.551 455.098 106.061 455.005 105.641 454.818C105.221 454.622 104.894 454.356 104.661 454.02C104.437 453.675 104.325 453.287 104.325 452.858C104.325 452.438 104.423 452.06 104.619 451.724C104.824 451.388 105.156 451.122 105.613 450.926C106.07 450.73 106.677 450.632 107.433 450.632H109.603V451.794H107.559C106.962 451.794 106.56 451.892 106.355 452.088C106.15 452.275 106.047 452.508 106.047 452.788C106.047 453.105 106.173 453.357 106.425 453.544C106.677 453.731 107.027 453.824 107.475 453.824C107.904 453.824 108.287 453.726 108.623 453.53C108.968 453.334 109.216 453.045 109.365 452.662L109.659 453.712C109.491 454.151 109.188 454.491 108.749 454.734C108.32 454.977 107.774 455.098 107.111 455.098ZM116.175 455.098C115.354 455.098 114.719 454.888 114.271 454.468C113.823 454.039 113.599 453.409 113.599 452.578V445.872H115.349V452.536C115.349 452.891 115.438 453.166 115.615 453.362C115.802 453.558 116.058 453.656 116.385 453.656C116.777 453.656 117.104 453.553 117.365 453.348L117.855 454.594C117.65 454.762 117.398 454.888 117.099 454.972C116.8 455.056 116.492 455.098 116.175 455.098ZM112.367 448.98V447.58H117.351V448.98H112.367ZM122.562 455.098C121.732 455.098 121.004 454.935 120.378 454.608C119.762 454.272 119.282 453.815 118.936 453.236C118.6 452.657 118.432 451.999 118.432 451.262C118.432 450.515 118.596 449.857 118.922 449.288C119.258 448.709 119.716 448.257 120.294 447.93C120.882 447.603 121.55 447.44 122.296 447.44C123.024 447.44 123.673 447.599 124.242 447.916C124.812 448.233 125.26 448.681 125.586 449.26C125.913 449.839 126.076 450.52 126.076 451.304C126.076 451.379 126.072 451.463 126.062 451.556C126.062 451.649 126.058 451.738 126.048 451.822H119.818V450.66H125.124L124.438 451.024C124.448 450.595 124.359 450.217 124.172 449.89C123.986 449.563 123.729 449.307 123.402 449.12C123.085 448.933 122.716 448.84 122.296 448.84C121.867 448.84 121.489 448.933 121.162 449.12C120.845 449.307 120.593 449.568 120.406 449.904C120.229 450.231 120.14 450.618 120.14 451.066V451.346C120.14 451.794 120.243 452.191 120.448 452.536C120.654 452.881 120.943 453.147 121.316 453.334C121.69 453.521 122.119 453.614 122.604 453.614C123.024 453.614 123.402 453.549 123.738 453.418C124.074 453.287 124.373 453.082 124.634 452.802L125.572 453.88C125.236 454.272 124.812 454.575 124.298 454.79C123.794 454.995 123.216 455.098 122.562 455.098ZM133.279 455L130.535 447.524H132.187L134.539 454.118H133.755L136.219 447.524H137.689L140.083 454.118H139.313L141.735 447.524H143.289L140.531 455H138.851L136.667 449.162H137.185L134.959 455H133.279ZM148.865 455V453.488L148.767 453.166V450.52C148.767 450.007 148.613 449.61 148.305 449.33C147.997 449.041 147.531 448.896 146.905 448.896C146.485 448.896 146.07 448.961 145.659 449.092C145.258 449.223 144.917 449.405 144.637 449.638L143.951 448.364C144.353 448.056 144.829 447.827 145.379 447.678C145.939 447.519 146.518 447.44 147.115 447.44C148.198 447.44 149.033 447.701 149.621 448.224C150.219 448.737 150.517 449.535 150.517 450.618V455H148.865ZM146.513 455.098C145.953 455.098 145.463 455.005 145.043 454.818C144.623 454.622 144.297 454.356 144.063 454.02C143.839 453.675 143.727 453.287 143.727 452.858C143.727 452.438 143.825 452.06 144.021 451.724C144.227 451.388 144.558 451.122 145.015 450.926C145.473 450.73 146.079 450.632 146.835 450.632H149.005V451.794H146.961C146.364 451.794 145.963 451.892 145.757 452.088C145.552 452.275 145.449 452.508 145.449 452.788C145.449 453.105 145.575 453.357 145.827 453.544C146.079 453.731 146.429 453.824 146.877 453.824C147.307 453.824 147.689 453.726 148.025 453.53C148.371 453.334 148.618 453.045 148.767 452.662L149.061 453.712C148.893 454.151 148.59 454.491 148.151 454.734C147.722 454.977 147.176 455.098 146.513 455.098ZM152.763 455V444.612H154.513V455H152.763ZM156.81 455V444.612H158.56V455H156.81Z" fill="black"/>
</g>
<g opacity="0.4">
<path d="M1255.14 1078.12C1254.4 1078.12 1253.73 1078 1253.1 1077.77C1252.49 1077.53 1251.96 1077.19 1251.5 1076.76C1251.04 1076.31 1250.68 1075.8 1250.43 1075.2C1250.18 1074.61 1250.05 1073.96 1250.05 1073.26C1250.05 1072.56 1250.18 1071.91 1250.43 1071.32C1250.68 1070.72 1251.04 1070.21 1251.5 1069.78C1251.97 1069.34 1252.51 1069 1253.13 1068.76C1253.75 1068.52 1254.43 1068.4 1255.17 1068.4C1255.97 1068.4 1256.69 1068.53 1257.33 1068.79C1257.98 1069.05 1258.52 1069.43 1258.96 1069.94L1257.86 1071.02C1257.49 1070.65 1257.09 1070.38 1256.65 1070.21C1256.23 1070.03 1255.76 1069.94 1255.25 1069.94C1254.76 1069.94 1254.3 1070.02 1253.87 1070.18C1253.45 1070.34 1253.09 1070.57 1252.78 1070.87C1252.47 1071.17 1252.24 1071.52 1252.06 1071.92C1251.9 1072.33 1251.82 1072.77 1251.82 1073.26C1251.82 1073.74 1251.9 1074.18 1252.06 1074.58C1252.24 1074.99 1252.47 1075.34 1252.78 1075.65C1253.09 1075.95 1253.45 1076.18 1253.86 1076.34C1254.27 1076.5 1254.73 1076.58 1255.24 1076.58C1255.71 1076.58 1256.16 1076.51 1256.59 1076.36C1257.03 1076.21 1257.45 1075.96 1257.84 1075.61L1258.84 1076.92C1258.35 1077.31 1257.77 1077.62 1257.11 1077.82C1256.47 1078.02 1255.81 1078.12 1255.14 1078.12ZM1257.18 1076.69V1073.15H1258.84V1076.92L1257.18 1076.69ZM1264.38 1078.08C1263.58 1078.08 1262.88 1077.92 1262.28 1077.61C1261.68 1077.28 1261.22 1076.84 1260.89 1076.28C1260.56 1075.73 1260.4 1075.09 1260.4 1074.38C1260.4 1073.66 1260.56 1073.03 1260.87 1072.48C1261.2 1071.92 1261.64 1071.48 1262.2 1071.17C1262.76 1070.85 1263.41 1070.69 1264.13 1070.69C1264.83 1070.69 1265.45 1070.85 1266 1071.15C1266.55 1071.46 1266.98 1071.89 1267.3 1072.45C1267.61 1073.01 1267.77 1073.66 1267.77 1074.42C1267.77 1074.49 1267.77 1074.57 1267.76 1074.66C1267.76 1074.75 1267.75 1074.84 1267.74 1074.92H1261.74V1073.8H1266.85L1266.19 1074.15C1266.2 1073.74 1266.12 1073.37 1265.94 1073.06C1265.76 1072.74 1265.51 1072.49 1265.19 1072.31C1264.89 1072.13 1264.53 1072.04 1264.13 1072.04C1263.71 1072.04 1263.35 1072.13 1263.03 1072.31C1262.73 1072.49 1262.48 1072.75 1262.3 1073.07C1262.13 1073.39 1262.05 1073.76 1262.05 1074.19V1074.46C1262.05 1074.89 1262.15 1075.28 1262.34 1075.61C1262.54 1075.94 1262.82 1076.2 1263.18 1076.38C1263.54 1076.56 1263.96 1076.65 1264.42 1076.65C1264.83 1076.65 1265.19 1076.58 1265.52 1076.46C1265.84 1076.33 1266.13 1076.13 1266.38 1075.86L1267.29 1076.9C1266.96 1077.28 1266.55 1077.57 1266.06 1077.78C1265.57 1077.98 1265.01 1078.08 1264.38 1078.08ZM1272.11 1078.08C1271.31 1078.08 1270.7 1077.88 1270.27 1077.47C1269.84 1077.06 1269.62 1076.45 1269.62 1075.65V1069.18H1271.31V1075.61C1271.31 1075.95 1271.4 1076.22 1271.57 1076.4C1271.75 1076.59 1271.99 1076.69 1272.31 1076.69C1272.69 1076.69 1273 1076.59 1273.25 1076.39L1273.73 1077.59C1273.53 1077.75 1273.29 1077.88 1273 1077.96C1272.71 1078.04 1272.41 1078.08 1272.11 1078.08ZM1268.43 1072.18V1070.83H1273.24V1072.18H1268.43ZM1283.29 1077.98V1076.53L1283.19 1076.22V1073.66C1283.19 1073.17 1283.04 1072.79 1282.75 1072.52C1282.45 1072.24 1282 1072.1 1281.4 1072.1C1280.99 1072.1 1280.59 1072.16 1280.2 1072.29C1279.81 1072.41 1279.48 1072.59 1279.21 1072.81L1278.55 1071.59C1278.94 1071.29 1279.39 1071.07 1279.93 1070.92C1280.47 1070.77 1281.02 1070.69 1281.6 1070.69C1282.64 1070.69 1283.45 1070.95 1284.02 1071.45C1284.59 1071.95 1284.88 1072.71 1284.88 1073.76V1077.98H1283.29ZM1281.02 1078.08C1280.48 1078.08 1280.01 1077.99 1279.6 1077.81C1279.2 1077.62 1278.88 1077.36 1278.66 1077.04C1278.44 1076.71 1278.33 1076.33 1278.33 1075.92C1278.33 1075.51 1278.43 1075.15 1278.62 1074.83C1278.81 1074.5 1279.13 1074.24 1279.57 1074.06C1280.02 1073.87 1280.6 1073.77 1281.33 1073.77H1283.42V1074.89H1281.45C1280.87 1074.89 1280.49 1074.99 1280.29 1075.18C1280.09 1075.36 1279.99 1075.58 1279.99 1075.85C1279.99 1076.16 1280.11 1076.4 1280.36 1076.58C1280.6 1076.76 1280.94 1076.85 1281.37 1076.85C1281.78 1076.85 1282.15 1076.76 1282.48 1076.57C1282.81 1076.38 1283.05 1076.1 1283.19 1075.73L1283.48 1076.74C1283.31 1077.17 1283.02 1077.49 1282.6 1077.73C1282.18 1077.96 1281.66 1078.08 1281.02 1078.08ZM1293.83 1078.08C1293.13 1078.08 1292.51 1077.93 1291.95 1077.62C1291.4 1077.31 1290.97 1076.89 1290.65 1076.34C1290.34 1075.78 1290.18 1075.13 1290.18 1074.38C1290.18 1073.63 1290.34 1072.98 1290.65 1072.44C1290.97 1071.89 1291.4 1071.46 1291.95 1071.15C1292.51 1070.85 1293.13 1070.69 1293.83 1070.69C1294.45 1070.69 1294.99 1070.83 1295.46 1071.1C1295.94 1071.36 1296.31 1071.76 1296.58 1072.3C1296.86 1072.84 1297 1073.53 1297 1074.38C1297 1075.22 1296.86 1075.91 1296.57 1076.46C1296.29 1077 1295.91 1077.4 1295.43 1077.67C1294.96 1077.94 1294.42 1078.08 1293.83 1078.08ZM1294.02 1076.63C1294.42 1076.63 1294.79 1076.54 1295.11 1076.36C1295.43 1076.18 1295.69 1075.92 1295.88 1075.58C1296.07 1075.24 1296.16 1074.84 1296.16 1074.38C1296.16 1073.91 1296.07 1073.51 1295.88 1073.18C1295.69 1072.84 1295.43 1072.58 1295.11 1072.4C1294.79 1072.22 1294.42 1072.13 1294.02 1072.13C1293.61 1072.13 1293.25 1072.22 1292.92 1072.4C1292.61 1072.58 1292.36 1072.84 1292.17 1073.18C1291.98 1073.51 1291.88 1073.91 1291.88 1074.38C1291.88 1074.84 1291.98 1075.24 1292.17 1075.58C1292.36 1075.92 1292.61 1076.18 1292.92 1076.36C1293.25 1076.54 1293.61 1076.63 1294.02 1076.63ZM1296.14 1080.6V1076.31L1296.27 1074.39L1296.22 1072.48V1070.78H1297.82V1080.6H1296.14ZM1303.08 1078.08C1302.47 1078.08 1301.93 1077.97 1301.46 1077.74C1300.99 1077.51 1300.63 1077.16 1300.37 1076.69C1300.11 1076.21 1299.98 1075.61 1299.98 1074.89V1070.78H1301.66V1074.66C1301.66 1075.31 1301.81 1075.8 1302.1 1076.12C1302.39 1076.44 1302.81 1076.59 1303.35 1076.59C1303.75 1076.59 1304.09 1076.51 1304.38 1076.35C1304.68 1076.19 1304.9 1075.95 1305.07 1075.62C1305.24 1075.3 1305.32 1074.9 1305.32 1074.42V1070.78H1307.01V1077.98H1305.4V1076.04L1305.69 1076.63C1305.44 1077.1 1305.09 1077.46 1304.62 1077.71C1304.15 1077.96 1303.64 1078.08 1303.08 1078.08ZM1312.46 1078.08C1311.72 1078.08 1311.07 1077.92 1310.49 1077.61C1309.91 1077.28 1309.46 1076.84 1309.13 1076.28C1308.79 1075.73 1308.63 1075.09 1308.63 1074.38C1308.63 1073.66 1308.79 1073.03 1309.13 1072.48C1309.46 1071.92 1309.91 1071.48 1310.49 1071.17C1311.07 1070.85 1311.72 1070.69 1312.46 1070.69C1313.21 1070.69 1313.87 1070.85 1314.44 1071.17C1315.03 1071.48 1315.48 1071.91 1315.81 1072.46C1316.14 1073.01 1316.31 1073.65 1316.31 1074.38C1316.31 1075.09 1316.14 1075.73 1315.81 1076.28C1315.48 1076.84 1315.03 1077.28 1314.44 1077.61C1313.87 1077.92 1313.21 1078.08 1312.46 1078.08ZM1312.46 1076.63C1312.87 1076.63 1313.24 1076.54 1313.57 1076.36C1313.89 1076.18 1314.14 1075.92 1314.32 1075.58C1314.51 1075.24 1314.61 1074.84 1314.61 1074.38C1314.61 1073.91 1314.51 1073.51 1314.32 1073.18C1314.14 1072.84 1313.89 1072.58 1313.57 1072.4C1313.24 1072.22 1312.88 1072.13 1312.47 1072.13C1312.06 1072.13 1311.69 1072.22 1311.37 1072.4C1311.05 1072.58 1310.8 1072.84 1310.61 1073.18C1310.42 1073.51 1310.33 1073.91 1310.33 1074.38C1310.33 1074.84 1310.42 1075.24 1310.61 1075.58C1310.8 1075.92 1311.05 1076.18 1311.37 1076.36C1311.69 1076.54 1312.06 1076.63 1312.46 1076.63ZM1320.63 1078.08C1319.84 1078.08 1319.23 1077.88 1318.8 1077.47C1318.37 1077.06 1318.15 1076.45 1318.15 1075.65V1069.18H1319.84V1075.61C1319.84 1075.95 1319.92 1076.22 1320.09 1076.4C1320.27 1076.59 1320.52 1076.69 1320.84 1076.69C1321.22 1076.69 1321.53 1076.59 1321.78 1076.39L1322.25 1077.59C1322.06 1077.75 1321.81 1077.88 1321.53 1077.96C1321.24 1078.04 1320.94 1078.08 1320.63 1078.08ZM1316.96 1072.18V1070.83H1321.77V1072.18H1316.96ZM1326.79 1078.08C1325.99 1078.08 1325.29 1077.92 1324.69 1077.61C1324.09 1077.28 1323.63 1076.84 1323.3 1076.28C1322.97 1075.73 1322.81 1075.09 1322.81 1074.38C1322.81 1073.66 1322.97 1073.03 1323.28 1072.48C1323.61 1071.92 1324.05 1071.48 1324.61 1071.17C1325.17 1070.85 1325.82 1070.69 1326.54 1070.69C1327.24 1070.69 1327.87 1070.85 1328.41 1071.15C1328.96 1071.46 1329.4 1071.89 1329.71 1072.45C1330.03 1073.01 1330.18 1073.66 1330.18 1074.42C1330.18 1074.49 1330.18 1074.57 1330.17 1074.66C1330.17 1074.75 1330.16 1074.84 1330.16 1074.92H1324.15V1073.8H1329.26L1328.6 1074.15C1328.61 1073.74 1328.53 1073.37 1328.35 1073.06C1328.17 1072.74 1327.92 1072.49 1327.6 1072.31C1327.3 1072.13 1326.94 1072.04 1326.54 1072.04C1326.12 1072.04 1325.76 1072.13 1325.44 1072.31C1325.14 1072.49 1324.9 1072.75 1324.72 1073.07C1324.54 1073.39 1324.46 1073.76 1324.46 1074.19V1074.46C1324.46 1074.89 1324.56 1075.28 1324.76 1075.61C1324.95 1075.94 1325.23 1076.2 1325.59 1076.38C1325.95 1076.56 1326.37 1076.65 1326.83 1076.65C1327.24 1076.65 1327.6 1076.58 1327.93 1076.46C1328.25 1076.33 1328.54 1076.13 1328.79 1075.86L1329.7 1076.9C1329.37 1077.28 1328.96 1077.57 1328.47 1077.78C1327.98 1077.98 1327.42 1078.08 1326.79 1078.08Z" fill="black"/>
<path d="M1266.92 979.634H1294.03C1295.89 979.634 1297.4 978.129 1297.4 976.272C1297.4 974.415 1295.89 972.91 1294.03 972.91H1266.92C1265.06 972.91 1263.55 974.415 1263.55 976.272C1263.55 978.129 1265.06 979.634 1266.92 979.634Z" fill="black"/>
<path d="M1307.48 979.634H1311.74C1313.6 979.634 1315.1 978.129 1315.1 976.272C1315.1 974.415 1313.6 972.91 1311.74 972.91H1307.48C1305.62 972.91 1304.12 974.415 1304.12 976.272C1304.12 978.129 1305.62 979.634 1307.48 979.634Z" fill="black"/>
<path d="M1266.92 993.083H1294.03C1295.89 993.083 1297.4 991.578 1297.4 989.721C1297.4 987.865 1295.89 986.359 1294.03 986.359H1266.92C1265.06 986.359 1263.55 987.865 1263.55 989.721C1263.55 991.578 1265.06 993.083 1266.92 993.083Z" fill="black"/>
<path d="M1266.92 966.185H1294.03C1295.89 966.185 1297.4 964.679 1297.4 962.823C1297.4 960.966 1295.89 959.461 1294.03 959.461H1266.92C1265.06 959.461 1263.55 960.966 1263.55 962.823C1263.55 964.679 1265.06 966.185 1266.92 966.185Z" fill="black"/>
<path d="M1307.48 966.185H1311.74C1313.6 966.185 1315.1 964.679 1315.1 962.823C1315.1 960.966 1313.6 959.461 1311.74 959.461H1307.48C1305.62 959.461 1304.12 960.966 1304.12 962.823C1304.12 964.679 1305.62 966.185 1307.48 966.185Z" fill="black"/>
<path d="M1347.37 1014.93C1347.37 1002.52 1339.54 991.897 1328.55 987.76V958.119C1328.55 951.445 1323.12 946.016 1316.45 946.016C1316.45 946.016 1244.78 946.016 1244.73 946.016C1238.05 946.016 1232.62 951.445 1232.62 958.118V984.34C1232.62 986.197 1234.13 987.702 1235.99 987.702H1250.11V1057.4C1250.11 1058.51 1250.65 1059.54 1251.55 1060.17C1252.46 1060.79 1253.62 1060.94 1254.65 1060.55L1262.43 1057.63L1270.22 1060.55C1270.98 1060.84 1271.82 1060.84 1272.58 1060.55L1280.36 1057.63L1288.15 1060.55C1288.91 1060.84 1289.75 1060.84 1290.51 1060.55L1298.29 1057.63L1306.08 1060.55C1306.84 1060.84 1307.68 1060.84 1308.44 1060.55L1316.22 1057.63L1324.01 1060.55C1324.39 1060.7 1324.79 1060.77 1325.19 1060.77C1325.86 1060.77 1326.53 1060.56 1327.1 1060.17C1328.01 1059.54 1328.55 1058.51 1328.55 1057.4V1042.11C1339.54 1037.97 1347.37 1027.35 1347.37 1014.93ZM1239.35 980.978V958.118C1239.35 955.152 1241.76 952.739 1244.73 952.739C1247.69 952.739 1250.11 955.152 1250.11 958.118V980.978H1239.35ZM1321.82 1052.55L1317.4 1050.89C1316.64 1050.61 1315.8 1050.61 1315.04 1050.89L1307.26 1053.81L1299.47 1050.89C1298.71 1050.61 1297.87 1050.61 1297.11 1050.89L1289.33 1053.81L1281.54 1050.89C1280.78 1050.61 1279.94 1050.61 1279.18 1050.89L1271.4 1053.81L1263.61 1050.89C1262.85 1050.61 1262.01 1050.61 1261.25 1050.89L1256.83 1052.55C1256.83 1052.55 1256.82 957.743 1256.82 957.668C1256.75 955.903 1256.31 954.234 1255.56 952.739H1316.45C1319.41 952.739 1321.82 955.153 1321.82 958.119V986.118C1320.69 985.981 1319.53 985.909 1318.35 985.909C1307.89 985.909 1298.7 991.477 1293.59 999.805H1266.92C1265.06 999.805 1263.55 1001.31 1263.55 1003.17C1263.55 1005.02 1265.06 1006.53 1266.92 1006.53H1290.57C1289.92 1008.68 1289.51 1010.93 1289.38 1013.25H1266.92C1265.06 1013.25 1263.55 1014.76 1263.55 1016.61C1263.55 1018.47 1265.06 1019.98 1266.92 1019.98H1289.77C1290.18 1022.33 1290.88 1024.58 1291.82 1026.7H1266.92C1265.06 1026.7 1263.55 1028.2 1263.55 1030.06C1263.55 1031.92 1265.06 1033.42 1266.92 1033.42H1294.03C1294.62 1033.42 1295.18 1033.27 1295.66 1033C1300.98 1039.67 1309.17 1043.96 1318.35 1043.96C1319.53 1043.96 1320.69 1043.88 1321.82 1043.75V1052.55ZM1318.35 1037.23C1306.05 1037.23 1296.05 1027.23 1296.05 1014.93C1296.05 1002.64 1306.05 992.633 1318.35 992.633C1330.65 992.633 1340.65 1002.64 1340.65 1014.93C1340.65 1027.23 1330.65 1037.23 1318.35 1037.23Z" fill="black"/>
<path d="M1324.53 1008.91C1324.53 1009.37 1324.91 1009.75 1325.38 1009.75H1328.39C1328.86 1009.75 1329.23 1010.13 1329.23 1010.6V1011.31C1329.23 1011.77 1328.86 1012.15 1328.39 1012.15H1325.09C1324.67 1012.15 1324.31 1012.47 1324.23 1012.88C1323.98 1014.21 1323.53 1015.27 1322.89 1016.08C1322.16 1017.02 1321.09 1017.7 1319.68 1018.11C1318.47 1018.47 1316.91 1018.67 1314.99 1018.72C1314.52 1018.73 1314.14 1019.11 1314.14 1019.57V1021.6C1314.14 1024.87 1315.58 1026.51 1318.45 1026.51C1321 1026.51 1322.4 1025.21 1322.64 1022.63C1322.68 1022.16 1323.05 1021.78 1323.52 1021.78H1324.88C1325.35 1021.78 1325.73 1022.17 1325.7 1022.63C1325.55 1024.64 1324.91 1026.18 1323.8 1027.27C1322.54 1028.51 1320.74 1029.12 1318.41 1029.12C1316 1029.12 1314.17 1028.46 1312.91 1027.13C1311.67 1025.79 1311.05 1023.93 1311.05 1021.53V1017.25C1311.05 1016.78 1311.42 1016.4 1311.89 1016.4C1314.23 1016.38 1315.99 1016.3 1317.17 1016.15C1318.51 1015.95 1319.48 1015.57 1320.09 1014.99C1320.53 1014.54 1320.86 1013.91 1321.07 1013.1C1321.2 1012.6 1320.8 1012.15 1320.29 1012.15H1310.25C1309.78 1012.15 1309.41 1011.77 1309.41 1011.31V1010.6C1309.41 1010.13 1309.78 1009.75 1310.25 1009.75H1320.55C1321.02 1009.75 1321.4 1009.37 1321.4 1008.91V1006.67C1321.4 1006.2 1321.02 1005.83 1320.55 1005.83H1310.25C1309.78 1005.83 1309.41 1005.45 1309.41 1004.98V1004.23C1309.41 1003.77 1309.78 1003.39 1310.25 1003.39H1328.39C1328.86 1003.39 1329.23 1003.77 1329.23 1004.23V1004.98C1329.23 1005.45 1328.86 1005.83 1328.39 1005.83H1325.38C1324.91 1005.83 1324.53 1006.2 1324.53 1006.67V1008.91Z" fill="black"/>
</g>
</g>
<defs>
<radialGradient id="paint0_radial_1397_2415" cx="0" cy="0" r="1" gradientUnits="userSpaceOnUse" gradientTransform="translate(539 876) rotate(47.8677) scale(954.021)">
<stop/>
<stop offset="1" stop-opacity="0"/>
</radialGradient>
<clipPath id="clip0_1397_2415">
<rect width="1826" height="1154" fill="white" transform="translate(-337)"/>
</clipPath>
<clipPath id="clip1_1397_2415">
<rect width="117.578" height="117.578" fill="white" transform="translate(1250 117)"/>
</clipPath>
</defs>
</svg>
