<svg width="1360" height="735" viewBox="0 0 1360 735" fill="none" xmlns="http://www.w3.org/2000/svg">
<g clip-path="url(#clip0_1397_2417)">
<path d="M-465.615 -419L-465.615 1333M-415.569 -419L-415.569 1333M-365.523 -419L-365.523 1333M-315.477 -419L-315.477 1333M-265.43 -419L-265.43 1333M-215.384 -419L-215.384 1333M-165.338 -419L-165.338 1333M-115.292 -419L-115.292 1333M-65.2458 -419L-65.2459 1333M-15.1997 -419L-15.1998 1333M34.8465 -419L34.8464 1333M84.8926 -419L84.8925 1333M134.939 -419L134.939 1333M184.985 -419L184.985 1333M235.031 -419L235.031 1333M285.077 -419L285.077 1333M335.123 -419L335.123 1333M385.169 -419L385.169 1333M435.216 -419L435.215 1333M485.262 -419L485.262 1333M535.308 -419L535.308 1333M585.354 -419L585.354 1333M635.4 -419L635.4 1333M685.446 -419L685.446 1333M735.492 -419L735.492 1333M785.539 -419L785.538 1333M835.585 -419L835.585 1333M885.631 -419L885.631 1333M935.677 -419L935.677 1333M985.723 -419L985.723 1333M1035.77 -419L1035.77 1333M1085.82 -419L1085.82 1333M1135.86 -419V1333M1185.91 -419V1333M1235.95 -419V1333M1286 -419V1333M-466 1332.23H1285.61M-466 1282.2H1285.61M-466 1232.16H1285.61M-466 1182.12H1285.61M-466 1132.09H1285.61M-466 1082.05H1285.61M-466 1032.02H1285.61M-466 981.984H1285.61M-466 931.949H1285.61M-466 881.914H1285.61M-466 831.879H1285.61M-466 781.844H1285.61M-466 731.808H1285.61M-466 681.773H1285.61M-466 631.738H1285.61M-466 581.703H1285.61M-466 531.668H1285.61M-466 481.633H1285.61M-466 431.597H1285.61M-466 381.562H1285.61M-466 331.527H1285.61M-466 281.492H1285.61M-466 231.457L1285.61 231.457M-466 181.422L1285.61 181.422M-466 131.387L1285.61 131.387M-466 81.3514L1285.61 81.3514M-466 31.3163L1285.61 31.3163M-466 -18.7189L1285.61 -18.7189M-466 -68.754L1285.61 -68.7541M-466 -118.789L1285.61 -118.789M-466 -168.824L1285.61 -168.824M-466 -218.859L1285.61 -218.859M-466 -268.895L1285.61 -268.895M-466 -318.93L1285.61 -318.93M-466 -368.965L1285.61 -368.965M-466 -419L1285.61 -419" stroke="url(#paint0_radial_1397_2417)" stroke-opacity="0.2"/>
<g opacity="0.2" clip-path="url(#clip1_1397_2417)">
<path d="M421 588.669V582.002C420.999 579.763 420.497 577.553 419.529 575.534C418.561 573.515 417.152 571.738 415.407 570.336H419.795C420.164 570.965 420.731 571.455 421.407 571.73C422.083 572.005 422.831 572.049 423.534 571.856C424.238 571.663 424.859 571.244 425.3 570.663C425.741 570.081 425.978 569.371 425.975 568.641C425.972 567.911 425.728 567.203 425.282 566.626C424.835 566.049 424.211 565.635 423.505 565.448C422.8 565.261 422.053 565.313 421.379 565.594C420.706 565.875 420.144 566.37 419.78 567.002H412.43C412.066 565.573 411.237 564.306 410.072 563.401C408.908 562.495 407.475 562.004 406 562.004C404.525 562.004 403.092 562.495 401.928 563.401C400.763 564.306 399.934 565.573 399.57 567.002H392.205C391.836 566.373 391.269 565.883 390.593 565.608C389.917 565.333 389.169 565.289 388.466 565.482C387.762 565.675 387.141 566.094 386.7 566.675C386.259 567.257 386.022 567.967 386.025 568.697C386.028 569.427 386.272 570.135 386.718 570.712C387.165 571.289 387.789 571.703 388.495 571.89C389.2 572.077 389.947 572.025 390.621 571.744C391.294 571.463 391.856 570.968 392.22 570.336H396.593C394.848 571.738 393.439 573.515 392.471 575.534C391.503 577.553 391.001 579.763 391 582.002V588.669C389.674 588.669 388.402 589.196 387.464 590.133C386.527 591.071 386 592.343 386 593.669V597.002C386 598.328 386.527 599.6 387.464 600.538C388.402 601.476 389.674 602.002 391 602.002H394.333C395.659 602.002 396.931 601.476 397.869 600.538C398.807 599.6 399.333 598.328 399.333 597.002V593.669C399.333 592.343 398.807 591.071 397.869 590.133C396.931 589.196 395.659 588.669 394.333 588.669V582.002C394.336 579.95 394.88 577.935 395.91 576.16C396.941 574.386 398.421 572.914 400.202 571.894C400.77 572.936 401.608 573.805 402.629 574.411C403.649 575.016 404.813 575.336 406 575.336C407.187 575.336 408.351 575.016 409.371 574.411C410.392 573.805 411.23 572.936 411.798 571.894C413.579 572.914 415.059 574.386 416.09 576.16C417.12 577.935 417.664 579.95 417.667 582.002V588.669C416.341 588.669 415.069 589.196 414.131 590.133C413.193 591.071 412.667 592.343 412.667 593.669V597.002C412.667 598.328 413.193 599.6 414.131 600.538C415.069 601.476 416.341 602.002 417.667 602.002H421C422.326 602.002 423.598 601.476 424.536 600.538C425.473 599.6 426 598.328 426 597.002V593.669C426 592.343 425.473 591.071 424.536 590.133C423.598 589.196 422.326 588.669 421 588.669ZM396 593.669V597.002C396 597.444 395.824 597.868 395.512 598.181C395.199 598.493 394.775 598.669 394.333 598.669H391C390.558 598.669 390.134 598.493 389.821 598.181C389.509 597.868 389.333 597.444 389.333 597.002V593.669C389.333 593.227 389.509 592.803 389.821 592.491C390.134 592.178 390.558 592.002 391 592.002H394.333C394.775 592.002 395.199 592.178 395.512 592.491C395.824 592.803 396 593.227 396 593.669ZM406 572.002C405.341 572.002 404.696 571.807 404.148 571.441C403.6 571.074 403.173 570.554 402.92 569.945C402.668 569.336 402.602 568.665 402.731 568.019C402.859 567.372 403.177 566.778 403.643 566.312C404.109 565.846 404.703 565.528 405.35 565.4C405.996 565.271 406.667 565.337 407.276 565.589C407.885 565.842 408.405 566.269 408.772 566.817C409.138 567.365 409.333 568.01 409.333 568.669C409.333 569.553 408.982 570.401 408.357 571.026C407.732 571.651 406.884 572.002 406 572.002ZM422.667 597.002C422.667 597.444 422.491 597.868 422.179 598.181C421.866 598.493 421.442 598.669 421 598.669H417.667C417.225 598.669 416.801 598.493 416.488 598.181C416.176 597.868 416 597.444 416 597.002V593.669C416 593.227 416.176 592.803 416.488 592.491C416.801 592.178 417.225 592.002 417.667 592.002H421C421.442 592.002 421.866 592.178 422.179 592.491C422.491 592.803 422.667 593.227 422.667 593.669V597.002Z" fill="#374957"/>
</g>
</g>
<defs>
<radialGradient id="paint0_radial_1397_2417" cx="0" cy="0" r="1" gradientUnits="userSpaceOnUse" gradientTransform="translate(410 457) rotate(46.8427) scale(527.775)">
<stop/>
<stop offset="1" stop-opacity="0"/>
</radialGradient>
<clipPath id="clip0_1397_2417">
<rect width="1422" height="735" fill="white" transform="translate(-62)"/>
</clipPath>
<clipPath id="clip1_1397_2417">
<rect width="40" height="40" fill="white" transform="translate(386 562)"/>
</clipPath>
</defs>
</svg>
