<svg width="24" height="24" viewBox="0 0 24 24" fill="none" xmlns="http://www.w3.org/2000/svg">
<g clip-path="url(#clip0_1333_3337)">
<path d="M6.99982 24.0002C6.86821 24.0009 6.73775 23.9757 6.61591 23.9259C6.49407 23.8762 6.38326 23.8028 6.28982 23.7102C6.19609 23.6172 6.12169 23.5066 6.07093 23.3847C6.02016 23.2629 5.99402 23.1322 5.99402 23.0002C5.99402 22.8681 6.02016 22.7374 6.07093 22.6156C6.12169 22.4937 6.19609 22.3831 6.28982 22.2902L14.4598 14.1202C15.0216 13.5577 15.3372 12.7952 15.3372 12.0002C15.3372 11.2052 15.0216 10.4427 14.4598 9.88017L6.28982 1.71018C6.10151 1.52188 5.99573 1.26649 5.99573 1.00018C5.99573 0.733883 6.10151 0.478489 6.28982 0.290185C6.47812 0.101882 6.73352 -0.00390625 6.99982 -0.00390625C7.26612 -0.00390625 7.52151 0.101882 7.70982 0.290185L15.8798 8.46017C16.3454 8.92463 16.7149 9.47639 16.9669 10.0838C17.219 10.6913 17.3488 11.3425 17.3488 12.0002C17.3488 12.6578 17.219 13.3091 16.9669 13.9165C16.7149 14.524 16.3454 15.0757 15.8798 15.5402L7.70982 23.7102C7.61638 23.8028 7.50556 23.8762 7.38372 23.9259C7.26189 23.9757 7.13142 24.0009 6.99982 24.0002Z" fill="#585858"/>
</g>
<defs>
<clipPath id="clip0_1333_3337">
<rect width="24" height="24" fill="white"/>
</clipPath>
</defs>
</svg>
