<svg width="24" height="26" viewBox="0 0 24 26" fill="none" xmlns="http://www.w3.org/2000/svg">
<path fill-rule="evenodd" clip-rule="evenodd" d="M1.00001 6.26309C0.999851 6.27343 0.999835 6.28375 0.999964 6.29407V18.8438C0.999964 20.5735 2.34768 21.9844 3.99996 21.9844H20C21.6523 21.9844 23 20.5735 23 18.8438V6.29419C23.0001 6.28378 23.0001 6.27336 22.9999 6.26294C22.9904 4.54157 21.6464 3.14062 20 3.14062H3.99996C2.35346 3.14062 1.0094 4.54165 1.00001 6.26309ZM3.10654 5.81429C3.27192 5.47194 3.612 5.23438 3.99996 5.23438H20C20.3879 5.23438 20.728 5.47194 20.8934 5.81429L12 12.3315L3.10654 5.81429ZM21 8.29194V18.8438C21 19.4171 20.5477 19.8906 20 19.8906H3.99996C3.45225 19.8906 2.99996 19.4171 2.99996 18.8438V8.29194L11.4265 14.467C11.7708 14.7193 12.2291 14.7193 12.5734 14.467L21 8.29194Z" fill="white" fill-opacity="0.75"/>
</svg>
