<svg width="22" height="23" viewBox="0 0 22 23" fill="none" xmlns="http://www.w3.org/2000/svg">
<g clip-path="url(#clip0_1397_2389)">
<path fill-rule="evenodd" clip-rule="evenodd" d="M16.9708 12.9584C17.7014 12.9574 18.4043 13.2378 18.9336 13.7414C18.9336 13.7414 21.1409 15.4391 21.1712 15.4629C21.7024 15.9956 22.0007 16.7172 22.0007 17.4695C22.0007 18.2218 21.7024 18.9434 21.1712 19.4761L20.3352 20.4377C12.8185 27.6225 -5.44149 9.35425 1.63518 1.82933L2.68843 0.912666C3.22293 0.397616 3.9385 0.113365 4.68073 0.121254C5.42296 0.129142 6.13233 0.428539 6.65576 0.954833C6.68326 0.984167 8.38093 3.18875 8.38093 3.18875C8.88452 3.71803 9.16492 4.42094 9.1639 5.15152C9.16287 5.8821 8.88051 6.58422 8.37543 7.11208L6.90876 8.85375C7.49641 10.281 8.3603 11.5781 9.45078 12.6705C10.5413 13.7628 11.8368 14.629 13.2631 15.2191L15.0103 13.7469C15.5381 13.2418 16.2402 12.9595 16.9708 12.9584Z" fill="#A9A9A9"/>
</g>
<defs>
<clipPath id="clip0_1397_2389">
<rect width="22" height="22" fill="white" transform="translate(0 0.125)"/>
</clipPath>
</defs>
</svg>
